<?xml version="1.0" encoding="UTF-8"?>
<svg width="41px" height="41px" viewBox="0 0 41 41" version="1.1" xmlns="http://www.w3.org/2000/svg" xmlns:xlink="http://www.w3.org/1999/xlink">
    <!-- Generator: Sketch 52.6 (67491) - http://www.bohemiancoding.com/sketch -->
    <title>billing</title>
    <desc>Created with Sketch.</desc>
    <g id="Page-1" stroke="none" stroke-width="1" fill="none" fill-rule="evenodd">
        <g id="billing" transform="translate(-0.500000, 0.000000)" fill="#000000" fill-rule="nonzero">
            <path d="M21,0 C9.67816262,0 0.5,9.17816262 0.5,20.5 C0.5,31.8218374 9.67816262,41 21,41 C32.3218374,41 41.5,31.8218374 41.5,20.5 C41.5,9.17816262 32.3218374,0 21,0 Z M21,38.2045455 C11.2220496,38.2045455 3.29545455,30.2779504 3.29545455,20.5 C3.29545455,10.7220496 11.2220496,2.79545455 21,2.79545455 C30.7779504,2.79545455 38.7045455,10.7220496 38.7045455,20.5 C38.7045455,30.2779504 30.7779504,38.2045455 21,38.2045455 Z" id="Shape"></path>
            <path d="M21.6290323,19.2482482 L21.6290323,11.8395062 C22.2353078,12.0564231 22.7853484,12.4144105 23.2367742,12.8858859 C23.7696774,13.4371038 23.7877419,13.7547548 23.7877419,15.0253587 C23.7877419,15.7993313 24.3943239,16.4267601 25.1425806,16.4267601 C25.8908374,16.4267601 26.4974194,15.7993313 26.4974194,15.0253587 C26.6800765,13.5143305 26.1842789,11.9999127 25.1516129,10.9145812 C24.1981299,9.90636394 22.9686632,9.22485207 21.6290323,8.96196196 L21.6290323,8.4014014 C21.6290323,7.62742878 21.0224503,7 20.2741935,7 C19.5259368,7 18.9193548,7.62742878 18.9193548,8.4014014 L18.9193548,9.15815816 C15.9261081,9.87219347 13.8427578,12.681465 13.9516129,15.8568569 C13.9516129,19.341675 16.6612903,21.0513847 18.9193548,21.6586587 L18.9193548,30.1604938 C17.1935196,29.3843965 16.1138525,27.5826698 16.2096774,25.6386386 C16.2096773,24.864666 15.6030954,24.2372373 14.8548387,24.2372373 C14.106582,24.2372373 13.5000001,24.864666 13.5,25.6386386 C13.5,29.375709 15.8483871,32.5241909 18.9193548,33.0473807 L18.9193548,33.5985986 C18.9193548,34.3725712 19.5259368,35 20.2741935,35 C21.0224503,35 21.6290323,34.3725712 21.6290323,33.5985986 L21.6290323,32.953954 C24.3387097,32.4214214 27.5,30.5995996 27.5,26.1244578 C27.5,22.1071071 23.8870968,19.7807808 21.6290323,19.2482482 Z M16.6612903,15.8568569 C16.5654486,14.2402649 17.4725213,12.73907 18.9193548,12.1197865 L18.9193548,18.6596597 C17.6572756,18.3330925 16.7442433,17.1997992 16.6612903,15.8568569 Z M21.6290323,30.0950951 L21.6290323,22.1725058 C22.8845161,22.6770103 24.7903226,24.041041 24.7903226,26.1338005 C24.8464589,28.0875558 23.4942914,29.7819065 21.6290323,30.0950951 Z" id="Shape"></path>
        </g>
    </g>
</svg>