<?xml version="1.0" encoding="UTF-8"?>
<svg width="16px" height="16px" viewBox="0 0 16 16" version="1.1" xmlns="http://www.w3.org/2000/svg" xmlns:xlink="http://www.w3.org/1999/xlink">
    <!-- Generator: Sketch 52.6 (67491) - http://www.bohemiancoding.com/sketch -->
    <title>Dollar-3 Copy 2</title>
    <desc>Created with Sketch.</desc>
    <g id="Page-1" stroke="none" stroke-width="1" fill="none" fill-rule="evenodd">
        <g id="Dollar-3-Copy-2" fill="#000000">
            <path d="M8.07822222,0.142222222 C3.75812818,0.142222222 0.256,3.6443504 0.256,7.96444444 C0.256,12.2845385 3.75812818,15.7866667 8.07822222,15.7866667 C12.3983163,15.7866667 15.9004444,12.2845385 15.9004444,7.96444444 C15.9004444,3.6443504 12.3983163,0.142222222 8.07822222,0.142222222 L8.07822222,0.142222222 Z M8.07822222,14.72 C4.34723191,14.72 1.32266667,11.6954348 1.32266667,7.96444444 C1.32266667,4.23345413 4.34723191,1.20888889 8.07822222,1.20888889 C11.8092125,1.20888889 14.8337778,4.23345413 14.8337778,7.96444444 C14.8337778,11.6954348 11.8092125,14.72 8.07822222,14.72 Z" id="Shape"></path>
            <path d="M8.43377778,7.47733333 L8.43377778,4.65777778 C8.67243861,4.74033019 8.88896254,4.87656997 9.06666667,5.056 C9.27644444,5.26577778 9.28355556,5.38666667 9.28355556,5.87022222 C9.28355556,6.16477409 9.52233702,6.40355556 9.81688889,6.40355556 C10.1114408,6.40355556 10.3502222,6.16477409 10.3502222,5.87022222 C10.4221253,5.29516807 10.2269542,4.71882392 9.82044444,4.30577778 C9.4451051,3.92207908 8.96112455,3.66271514 8.43377778,3.56266667 L8.43377778,3.34933333 C8.43377778,3.05478147 8.19499631,2.816 7.90044444,2.816 C7.60589258,2.816 7.36711111,3.05478147 7.36711111,3.34933333 L7.36711111,3.63733333 C6.18881716,3.90907478 5.36870468,4.97820324 5.41155556,6.18666667 C5.41155556,7.51288889 6.47822222,8.16355556 7.36711111,8.39466667 L7.36711111,11.6302222 C6.68773469,11.3348617 6.26272288,10.649176 6.30044444,9.90933333 C6.30044442,9.61478148 6.06166296,9.37600004 5.76711111,9.37600004 C5.47255926,9.37600004 5.2337778,9.61478148 5.23377778,9.90933333 C5.23377778,11.3315556 6.15822222,12.5297778 7.36711111,12.7288889 L7.36711111,12.9386667 C7.36711111,13.2332185 7.60589258,13.472 7.90044444,13.472 C8.19499631,13.472 8.43377778,13.2332185 8.43377778,12.9386667 L8.43377778,12.6933333 C9.50044444,12.4906667 10.7448889,11.7973333 10.7448889,10.0942222 C10.7448889,8.56533333 9.32266667,7.68 8.43377778,7.47733333 Z M6.47822222,6.18666667 C6.44049405,5.57143795 6.79756396,5.00012609 7.36711111,4.76444444 L7.36711111,7.25333333 C6.87029262,7.12905119 6.51087674,6.69775213 6.47822222,6.18666667 Z M8.43377778,11.6053333 L8.43377778,8.59022222 C8.928,8.78222222 9.67822222,9.30133333 9.67822222,10.0977778 C9.70032033,10.8413213 9.16803851,11.4861427 8.43377778,11.6053333 L8.43377778,11.6053333 Z" id="Shape"></path>
        </g>
    </g>
</svg>