<?xml version="1.0" encoding="UTF-8"?>
<svg width="45px" height="45px" viewBox="0 0 45 45" version="1.1" xmlns="http://www.w3.org/2000/svg" xmlns:xlink="http://www.w3.org/1999/xlink">
    <!-- Generator: Sketch 52.6 (67491) - http://www.bohemiancoding.com/sketch -->
    <title>Dollar-3 Copy</title>
    <desc>Created with Sketch.</desc>
    <g id="Page-1" stroke="none" stroke-width="1" fill="none" fill-rule="evenodd">
        <g id="Dollar-3-Copy" fill="#0079FC">
            <path d="M22.72,0.4 C10.5697355,0.4 0.72,10.2497355 0.72,22.4 C0.72,34.5502645 10.5697355,44.4 22.72,44.4 C34.8702645,44.4 44.72,34.5502645 44.72,22.4 C44.72,10.2497355 34.8702645,0.4 22.72,0.4 L22.72,0.4 Z M22.72,41.4 C12.2265898,41.4 3.72,32.8934102 3.72,22.4 C3.72,11.9065898 12.2265898,3.4 22.72,3.4 C33.2134102,3.4 41.72,11.9065898 41.72,22.4 C41.72,32.8934102 33.2134102,41.4 22.72,41.4 Z" id="Shape"></path>
            <path d="M23.72,21.03 L23.72,13.1 C24.3912336,13.3321786 25.0002072,13.715353 25.5,14.22 C26.09,14.81 26.11,15.15 26.11,16.51 C26.11,17.3384271 26.7815729,18.01 27.61,18.01 C28.4384271,18.01 29.11,17.3384271 29.11,16.51 C29.3122275,14.8926602 28.7633088,13.2716923 27.62,12.11 C26.5643581,11.0308474 25.2031628,10.3013863 23.72,10.02 L23.72,9.42 C23.72,8.59157288 23.0484271,7.92 22.22,7.92 C21.3915729,7.92 20.72,8.59157288 20.72,9.42 L20.72,10.23 C17.4060483,10.9942728 15.0994819,14.0011966 15.22,17.4 C15.22,21.13 18.22,22.96 20.72,23.61 L20.72,32.71 C18.8092538,31.8792987 17.6139081,29.9508076 17.72,27.87 C17.7199999,27.0415729 17.0484271,26.3700001 16.22,26.3700001 C15.3915729,26.3700001 14.7200001,27.0415729 14.72,27.87 C14.72,31.87 17.32,35.24 20.72,35.8 L20.72,36.39 C20.72,37.2184271 21.3915729,37.89 22.22,37.89 C23.0484271,37.89 23.72,37.2184271 23.72,36.39 L23.72,35.7 C26.72,35.13 30.22,33.18 30.22,28.39 C30.22,24.09 26.22,21.6 23.72,21.03 Z M18.22,17.4 C18.1138895,15.6696692 19.1181486,14.0628546 20.72,13.4 L20.72,20.4 C19.322698,20.0504565 18.3118408,18.8374279 18.22,17.4 Z M23.72,32.64 L23.72,24.16 C25.11,24.7 27.22,26.16 27.22,28.4 C27.2821509,30.491216 25.7851083,32.3047763 23.72,32.64 L23.72,32.64 Z" id="Shape"></path>
        </g>
    </g>
</svg>