<?xml version="1.0" encoding="UTF-8"?>
<svg width="45px" height="45px" viewBox="0 0 45 45" version="1.1" xmlns="http://www.w3.org/2000/svg" xmlns:xlink="http://www.w3.org/1999/xlink">
    <!-- Generator: Sketch 52.6 (67491) - http://www.bohemiancoding.com/sketch -->
    <title>User-2 Copy</title>
    <desc>Created with Sketch.</desc>
    <g id="Page-1" stroke="none" stroke-width="1" fill="none" fill-rule="evenodd">
        <g id="User-2-Copy" fill="#0079FC">
            <path d="M22.72,0.65 C10.5697355,0.65 0.72,10.4997355 0.72,22.65 C0.72,34.8002645 10.5697355,44.65 22.72,44.65 C34.8702645,44.65 44.72,34.8002645 44.72,22.65 C44.72,10.4997355 34.8702645,0.65 22.72,0.65 Z M3.72,22.65 C3.7193925,14.3285631 9.13381859,6.97500488 17.0802082,4.50494324 C25.0265978,2.0348816 33.6556832,5.02314429 38.3726546,11.8785431 C43.089626,18.733942 42.7967593,27.8611024 37.65,34.4 C35.3577259,30.9857728 32.031812,28.3958356 28.16,27.01 C29.8332742,25.2189032 30.7503797,22.8509082 30.72,20.4 C30.72,15.4 27.13,11.4 22.72,11.4 C18.31,11.4 14.72,15.4 14.72,20.4 C14.6951399,22.9383758 15.6893524,25.3806805 17.48,27.18 C13.580711,28.5797174 10.2917883,31.295731 8.18,34.86 C5.29719638,31.4449099 3.71711075,27.1191598 3.72,22.65 L3.72,22.65 Z M23.22,26.15 C22.6721632,26.1522505 22.1247932,26.1822891 21.58,26.24 C19.1463414,25.3574551 17.578148,22.9848516 17.72,20.4 C17.72,17.09 19.96,14.4 22.72,14.4 C25.48,14.4 27.72,17.09 27.72,20.4 C27.8432207,22.9121221 26.3683008,25.2287082 24.04,26.18 C23.77,26.17 23.5,26.15 23.22,26.15 Z M10.4,37.15 C12.5734787,32.9067368 16.6781929,29.9886581 21.4,29.33 C22.3734836,29.5201083 23.3766671,29.496223 24.34,29.26 C29.0065374,29.8901454 33.1267203,32.6246496 35.52,36.68 C28.4678326,43.1892263 17.6604456,43.3911934 10.37,37.15 L10.4,37.15 Z" id="Shape"></path>
        </g>
    </g>
</svg>