<?xml version="1.0" encoding="UTF-8"?>
<svg width="41px" height="41px" viewBox="0 0 41 41" version="1.1" xmlns="http://www.w3.org/2000/svg" xmlns:xlink="http://www.w3.org/1999/xlink">
    <!-- Generator: Sketch 52.6 (67491) - http://www.bohemiancoding.com/sketch -->
    <title>connected</title>
    <desc>Created with Sketch.</desc>
    <g id="Page-1" stroke="none" stroke-width="1" fill="none" fill-rule="evenodd">
        <g id="connected" fill="#000000" fill-rule="nonzero">
            <path d="M20.5000001,0 C9.17816266,0 0,9.1781626 0,20.4999999 C0,31.8218373 9.17816266,41 20.5000001,41 C31.8218376,41 41,31.8218373 41,20.4999999 C41,9.1781626 31.8218376,0 20.5000001,0 Z M2.79545456,20.4999999 C2.79488848,12.7459338 7.84014915,5.89375454 15.2447395,3.5921062 C22.6493299,1.29045785 30.6900684,4.07497535 35.0854282,10.4629606 C39.4807879,16.8509459 39.2078894,25.3557999 34.4120456,31.4488635 C32.2760629,28.2674247 29.1769158,25.854074 25.5690909,24.5627272 C27.1282784,22.8937507 27.9828538,20.6872099 27.9545456,18.403409 C27.9545456,13.7443182 24.6093182,10.0170454 20.5000001,10.0170454 C16.3906819,10.0170454 13.0454546,13.7443182 13.0454546,18.403409 C13.0222895,20.7687138 13.9487148,23.0444976 15.6172728,24.7211363 C11.9838444,26.0254184 8.9191664,28.5562492 6.95136364,31.8775 C4.26511482,28.6952568 2.7927623,24.6644443 2.79545456,20.4999999 Z M20.9659092,23.7613636 C20.4554249,23.7634606 19.9453756,23.7914511 19.4377273,23.8452272 C17.17,23.0228558 15.7087289,20.8120208 15.8409091,18.403409 C15.8409091,15.3190909 17.9281819,12.8125 20.5000001,12.8125 C23.0718183,12.8125 25.159091,15.3190909 25.159091,18.403409 C25.2739103,20.7442501 23.8995531,22.9028871 21.7300001,23.7893181 C21.4784092,23.7799999 21.2268183,23.7613636 20.9659092,23.7613636 Z M9.02000003,34.0113636 C11.045287,30.0574138 14.8701344,27.338295 19.2700001,26.7245453 C20.1771098,26.9016917 21.1118944,26.8794348 22.0095455,26.6593182 C26.3579099,27.2464989 30.1971712,29.7945597 32.4272727,33.5734091 C25.8559349,39.6388245 15.7854152,39.8270211 8.99204548,34.0113636 L9.02000003,34.0113636 Z" id="Shape"></path>
        </g>
    </g>
</svg>