<?xml version="1.0" encoding="UTF-8"?>
<svg width="16px" height="16px" viewBox="0 0 16 16" version="1.1" xmlns="http://www.w3.org/2000/svg" xmlns:xlink="http://www.w3.org/1999/xlink">
    <!-- Generator: Sketch 52.6 (67491) - http://www.bohemiancoding.com/sketch -->
    <title>User-2 Copy 2</title>
    <desc>Created with Sketch.</desc>
    <g id="Page-1" stroke="none" stroke-width="1" fill="none" fill-rule="evenodd">
        <g id="User-2-Copy-2" fill="#000000">
            <path d="M8.07822222,0.231111111 C3.75812818,0.231111111 0.256,3.73323929 0.256,8.05333333 C0.256,12.3734274 3.75812818,15.8755556 8.07822222,15.8755556 C12.3983163,15.8755556 15.9004444,12.3734274 15.9004444,8.05333333 C15.9004444,3.73323929 12.3983163,0.231111111 8.07822222,0.231111111 Z M1.32266667,8.05333333 C1.32245067,5.09460021 3.24757994,2.48000174 6.07296292,1.6017576 C8.8983459,0.723513457 11.9664651,1.78600686 13.6436105,4.22348201 C15.3207559,6.66095716 15.2166255,9.90616975 13.3866667,12.2311111 C12.5716359,11.0171637 11.3890887,10.0962971 10.0124444,9.60355556 C10.6073864,8.96672115 10.9334683,8.12476737 10.9226667,7.25333333 C10.9226667,5.47555556 9.64622222,4.05333333 8.07822222,4.05333333 C6.51022222,4.05333333 5.23377778,5.47555556 5.23377778,7.25333333 C5.22493862,8.15586695 5.57843641,9.02424194 6.21511111,9.664 C4.82869726,10.1616773 3.65930251,11.127371 2.90844444,12.3946667 C1.8834476,11.1804124 1.32163938,9.64236792 1.32266667,8.05333333 L1.32266667,8.05333333 Z M8.256,9.29777778 C8.06121359,9.29857794 7.86659315,9.30925833 7.67288889,9.32977778 C6.80758804,9.01598402 6.25000818,8.17239169 6.30044444,7.25333333 C6.30044444,6.07644444 7.09688889,5.12 8.07822222,5.12 C9.05955556,5.12 9.856,6.07644444 9.856,7.25333333 C9.8998118,8.14653231 9.37539585,8.97020736 8.54755556,9.30844444 C8.45155556,9.30488889 8.35555556,9.29777778 8.256,9.29777778 Z M3.69777778,13.2088889 C4.47057021,11.7001731 5.93002415,10.662634 7.60888889,10.4284444 C7.95501641,10.4960385 8.31170386,10.4875459 8.65422222,10.4035556 C10.3134355,10.6276072 11.7783894,11.5998754 12.6293333,13.0417778 C10.121896,15.3561694 6.27926954,15.4279799 3.68711111,13.2088889 L3.69777778,13.2088889 Z" id="Shape"></path>
        </g>
    </g>
</svg>