<?xml version="1.0" encoding="UTF-8"?>
<svg width="41px" height="41px" viewBox="0 0 41 41" version="1.1" xmlns="http://www.w3.org/2000/svg" xmlns:xlink="http://www.w3.org/1999/xlink">
    <!-- Generator: Sketch 52.6 (67491) - http://www.bohemiancoding.com/sketch -->
    <title>coupons</title>
    <desc>Created with Sketch.</desc>
    <g id="Page-1" stroke="none" stroke-width="1" fill="none" fill-rule="evenodd">
        <g id="coupons" fill="#000000">
            <path d="M20.5000001,0 C9.17816266,0 0,9.17816261 0,20.4999999 C0,31.8218373 9.17816266,41 20.5000001,41 C31.8218376,41 41,31.8218373 41,20.4999999 C41,9.17816261 31.8218376,0 20.5000001,0 Z M20.5000001,38.2045454 C10.7220496,38.2045454 2.79545456,30.2779505 2.79545456,20.4999999 C2.79545456,10.7220495 10.7220496,2.79545454 20.5000001,2.79545454 C30.2779505,2.79545454 38.2045456,10.7220495 38.2045456,20.4999999 C38.2045456,30.2779505 30.2779505,38.2045454 20.5000001,38.2045454 Z" id="Shape" fill-rule="nonzero"></path>
            <path d="M17,15.5 C17,13.0147186 14.9852814,11 12.5,11 C10.0147186,11 8,13.0147186 8,15.5 C8,17.9852814 10.0147186,20 12.5,20 C14.9852814,20 17,17.9852814 17,15.5 Z M10.7,15.5 C10.7,14.5058875 11.5058875,13.7 12.5,13.7 C13.4941125,13.7 14.3,14.5058875 14.3,15.5 C14.3,16.4941125 13.4941125,17.3 12.5,17.3 C11.5058875,17.3 10.7,16.4941125 10.7,15.5 Z" id="Shape" fill-rule="nonzero"></path>
            <path d="M25.5000002,24 C23.0147186,24 21,26.0147186 21,28.5 C21,30.9852812 23.0147186,33 25.5000002,33 C27.9852814,33 30,30.9852812 30,28.5 C30,26.0147186 27.9852814,24 25.5000002,24 Z M25.5000002,30.2999999 C24.5058875,30.2999999 23.7,29.4941125 23.7,28.5 C23.7,27.5058875 24.5058875,26.7 25.5000002,26.7 C26.4941127,26.7 27.3000001,27.5058875 27.3000001,28.5 C27.3000001,29.4941125 26.4941127,30.2999999 25.5000002,30.2999999 Z" id="Shape" fill-rule="nonzero"></path>
            <path d="M29.5819465,11.4180534 C29.023848,10.8606489 28.1197272,10.8606489 27.5616287,11.4180534 L9.45500693,29.5246753 C9.07256994,29.8810339 8.91514526,30.4177236 9.04449066,30.9242007 C9.17383604,31.4306781 9.56932206,31.8261642 10.0757993,31.9555093 C10.5822765,32.0848547 11.1189662,31.9274301 11.4753247,31.5449932 L29.5819465,13.4383712 C30.1393512,12.8802726 30.1393512,11.976152 29.5819465,11.4180534 Z" id="Shape"></path>
        </g>
    </g>
</svg>