<?xml version="1.0" encoding="UTF-8"?>
<svg width="45px" height="45px" viewBox="0 0 45 45" version="1.1" xmlns="http://www.w3.org/2000/svg" xmlns:xlink="http://www.w3.org/1999/xlink">
    <!-- Generator: Sketch 52.6 (67491) - http://www.bohemiancoding.com/sketch -->
    <title>Discount Copy</title>
    <desc>Created with Sketch.</desc>
    <g id="Page-1" stroke="none" stroke-width="1" fill="none" fill-rule="evenodd">
        <g id="Discount-Copy" fill="#007BFF">
            <path d="M22.72,0.4 C10.5697355,0.4 0.72,10.2497355 0.72,22.4 C0.72,34.5502645 10.5697355,44.4 22.72,44.4 C34.8702645,44.4 44.72,34.5502645 44.72,22.4 C44.72,10.2497355 34.8702645,0.4 22.72,0.4 L22.72,0.4 Z M22.72,41.4 C12.2265898,41.4 3.72,32.8934102 3.72,22.4 C3.72,11.9065898 12.2265898,3.4 22.72,3.4 C33.2134102,3.4 41.72,11.9065898 41.72,22.4 C41.72,32.8934102 33.2134102,41.4 22.72,41.4 Z" id="Shape"></path>
            <path d="M19.72,16.4 C19.72,13.6385763 17.4814237,11.4 14.72,11.4 C11.9585763,11.4 9.72,13.6385763 9.72,16.4 C9.72,19.1614237 11.9585763,21.4 14.72,21.4 C17.4814237,21.4 19.72,19.1614237 19.72,16.4 L19.72,16.4 Z M12.72,16.4 C12.72,15.2954305 13.6154305,14.4 14.72,14.4 C15.8245695,14.4 16.72,15.2954305 16.72,16.4 C16.72,17.5045695 15.8245695,18.4 14.72,18.4 C13.6154305,18.4 12.72,17.5045695 12.72,16.4 Z" id="Shape"></path>
            <path d="M28.72,25.4 C25.9585763,25.4 23.72,27.6385763 23.72,30.4 C23.72,33.1614237 25.9585763,35.4 28.72,35.4 C31.4814237,35.4 33.72,33.1614237 33.72,30.4 C33.72,27.6385763 31.4814237,25.4 28.72,25.4 Z M28.72,32.4 C27.6154305,32.4 26.72,31.5045695 26.72,30.4 C26.72,29.2954305 27.6154305,28.4 28.72,28.4 C29.8245695,28.4 30.72,29.2954305 30.72,30.4 C30.72,31.5045695 29.8245695,32.4 28.72,32.4 Z" id="Shape"></path>
            <path d="M32.78,12.34 C32.1943649,11.7550932 31.2456351,11.7550932 30.66,12.34 L11.66,31.34 C11.2586936,31.7139412 11.0935016,32.2771111 11.2292289,32.8085778 C11.3649562,33.3400446 11.7799554,33.7550438 12.3114222,33.8907711 C12.8428889,34.0264984 13.4060588,33.8613064 13.78,33.46 L32.78,14.46 C33.3649068,13.8743649 33.3649068,12.9256351 32.78,12.34 L32.78,12.34 Z" id="Shape"></path>
        </g>
    </g>
</svg>