<?xml version="1.0" encoding="UTF-8"?>
<svg width="16px" height="16px" viewBox="0 0 16 16" version="1.1" xmlns="http://www.w3.org/2000/svg" xmlns:xlink="http://www.w3.org/1999/xlink">
    <!-- Generator: Sketch 52.6 (67491) - http://www.bohemiancoding.com/sketch -->
    <title>Discount Copy 2</title>
    <desc>Created with Sketch.</desc>
    <g id="Page-1" stroke="none" stroke-width="1" fill="none" fill-rule="evenodd">
        <g id="Discount-Copy-2" fill="#000000">
            <path d="M8.07822222,0.142222222 C3.75812818,0.142222222 0.256,3.6443504 0.256,7.96444444 C0.256,12.2845385 3.75812818,15.7866667 8.07822222,15.7866667 C12.3983163,15.7866667 15.9004444,12.2845385 15.9004444,7.96444444 C15.9004444,3.6443504 12.3983163,0.142222222 8.07822222,0.142222222 L8.07822222,0.142222222 Z M8.07822222,14.72 C4.34723191,14.72 1.32266667,11.6954348 1.32266667,7.96444444 C1.32266667,4.23345413 4.34723191,1.20888889 8.07822222,1.20888889 C11.8092125,1.20888889 14.8337778,4.23345413 14.8337778,7.96444444 C14.8337778,11.6954348 11.8092125,14.72 8.07822222,14.72 Z" id="Shape"></path>
            <path d="M7.01155556,5.83111111 C7.01155556,4.84927156 6.21561733,4.05333333 5.23377778,4.05333333 C4.25193822,4.05333333 3.456,4.84927156 3.456,5.83111111 C3.456,6.81295067 4.25193822,7.60888889 5.23377778,7.60888889 C6.21561733,7.60888889 7.01155556,6.81295067 7.01155556,5.83111111 L7.01155556,5.83111111 Z M4.52266667,5.83111111 C4.52266667,5.43837529 4.84104196,5.12 5.23377778,5.12 C5.6265136,5.12 5.94488889,5.43837529 5.94488889,5.83111111 C5.94488889,6.22384693 5.6265136,6.54222222 5.23377778,6.54222222 C4.84104196,6.54222222 4.52266667,6.22384693 4.52266667,5.83111111 Z" id="Shape"></path>
            <path d="M10.2115556,9.03111111 C9.229716,9.03111111 8.43377778,9.82704933 8.43377778,10.8088889 C8.43377778,11.7907284 9.229716,12.5866667 10.2115556,12.5866667 C11.1933951,12.5866667 11.9893333,11.7907284 11.9893333,10.8088889 C11.9893333,9.82704933 11.1933951,9.03111111 10.2115556,9.03111111 Z M10.2115556,11.52 C9.81881973,11.52 9.50044444,11.2016247 9.50044444,10.8088889 C9.50044444,10.4161531 9.81881973,10.0977778 10.2115556,10.0977778 C10.6042914,10.0977778 10.9226667,10.4161531 10.9226667,10.8088889 C10.9226667,11.2016247 10.6042914,11.52 10.2115556,11.52 Z" id="Shape"></path>
            <path d="M11.6551111,4.38755556 C11.4468853,4.17958871 11.1095591,4.17958871 10.9013333,4.38755556 L4.14577778,11.1431111 C4.00309107,11.276068 3.94435614,11.4763062 3.99261473,11.6652721 C4.04087331,11.8542381 4.1884286,12.0017934 4.37739455,12.0500519 C4.5663605,12.0983105 4.7665987,12.0395756 4.89955556,11.8968889 L11.6551111,5.14133333 C11.863078,4.93310752 11.863078,4.59578137 11.6551111,4.38755556 L11.6551111,4.38755556 Z" id="Shape"></path>
        </g>
    </g>
</svg>