<?xml version="1.0" encoding="UTF-8"?>
<svg width="39px" height="39px" viewBox="0 0 39 39" version="1.1" xmlns="http://www.w3.org/2000/svg" xmlns:xlink="http://www.w3.org/1999/xlink">
    <!-- Generator: Sketch 52.6 (67491) - http://www.bohemiancoding.com/sketch -->
    <title>Server-2 Copy</title>
    <desc>Created with Sketch.</desc>
    <g id="Page-1" stroke="none" stroke-width="1" fill="none" fill-rule="evenodd">
        <g id="Server-2-Copy" fill="#0079FC">
            <path d="M9.72,14.4 C12.4814237,14.4 14.72,12.1614237 14.72,9.4 C14.72,6.63857625 12.4814237,4.4 9.72,4.4 C6.95857625,4.4 4.72,6.63857625 4.72,9.4 C4.72,12.1614237 6.95857625,14.4 9.72,14.4 Z M9.72,7.4 C10.8245695,7.4 11.72,8.2954305 11.72,9.4 C11.72,10.5045695 10.8245695,11.4 9.72,11.4 C8.6154305,11.4 7.72,10.5045695 7.72,9.4 C7.72,8.2954305 8.6154305,7.4 9.72,7.4 Z" id="Shape"></path>
            <path d="M35.72,0.4 L3.72,0.4 C2.06314575,0.4 0.72,1.74314575 0.72,3.4 L0.72,15.4 C0.72,17.0568542 2.06314575,18.4 3.72,18.4 L35.72,18.4 C37.3768542,18.4 38.72,17.0568542 38.72,15.4 L38.72,3.4 C38.72,1.74314575 37.3768542,0.4 35.72,0.4 Z M35.72,15.4 L3.72,15.4 L3.72,3.4 L35.72,3.4 L35.72,15.4 Z" id="Shape"></path>
            <path d="M9.72,34.4 C12.4814237,34.4 14.72,32.1614237 14.72,29.4 C14.72,26.6385763 12.4814237,24.4 9.72,24.4 C6.95857625,24.4 4.72,26.6385763 4.72,29.4 C4.72,32.1614237 6.95857625,34.4 9.72,34.4 Z M9.72,27.4 C10.8245695,27.4 11.72,28.2954305 11.72,29.4 C11.72,30.5045695 10.8245695,31.4 9.72,31.4 C8.6154305,31.4 7.72,30.5045695 7.72,29.4 C7.72,28.2954305 8.6154305,27.4 9.72,27.4 Z" id="Shape"></path>
            <path d="M35.72,20.4 L3.72,20.4 C2.06314575,20.4 0.72,21.7431458 0.72,23.4 L0.72,35.4 C0.72,37.0568542 2.06314575,38.4 3.72,38.4 L35.72,38.4 C37.3768542,38.4 38.72,37.0568542 38.72,35.4 L38.72,23.4 C38.72,21.7431458 37.3768542,20.4 35.72,20.4 Z M35.72,35.4 L3.72,35.4 L3.72,23.4 L35.72,23.4 L35.72,35.4 Z" id="Shape"></path>
        </g>
    </g>
</svg>