<?xml version="1.0" encoding="UTF-8"?>
<svg width="16px" height="16px" viewBox="0 0 16 16" version="1.1" xmlns="http://www.w3.org/2000/svg" xmlns:xlink="http://www.w3.org/1999/xlink">
    <!-- Generator: Sketch 52.6 (67491) - http://www.bohemiancoding.com/sketch -->
    <title>Server-2 Copy 2</title>
    <desc>Created with Sketch.</desc>
    <g id="Page-1" stroke="none" stroke-width="1" fill="none" fill-rule="evenodd">
        <g id="Server-2-Copy-2" fill="#000000">
            <path d="M3.98769231,5.90769231 C5.1205841,5.90769231 6.03897436,4.98930205 6.03897436,3.85641026 C6.03897436,2.72351846 5.1205841,1.80512821 3.98769231,1.80512821 C2.85480051,1.80512821 1.93641026,2.72351846 1.93641026,3.85641026 C1.93641026,4.98930205 2.85480051,5.90769231 3.98769231,5.90769231 Z M3.98769231,3.03589744 C4.44084903,3.03589744 4.80820513,3.40325354 4.80820513,3.85641026 C4.80820513,4.30956697 4.44084903,4.67692308 3.98769231,4.67692308 C3.53453559,4.67692308 3.16717949,4.30956697 3.16717949,3.85641026 C3.16717949,3.40325354 3.53453559,3.03589744 3.98769231,3.03589744 Z" id="Shape"></path>
            <path d="M14.654359,0.164102564 L1.52615385,0.164102564 C0.846418769,0.164102564 0.295384615,0.715136718 0.295384615,1.39487179 L0.295384615,6.31794872 C0.295384615,6.99768379 0.846418769,7.54871795 1.52615385,7.54871795 L14.654359,7.54871795 C15.3340941,7.54871795 15.8851282,6.99768379 15.8851282,6.31794872 L15.8851282,1.39487179 C15.8851282,0.715136718 15.3340941,0.164102564 14.654359,0.164102564 Z M14.654359,6.31794872 L1.52615385,6.31794872 L1.52615385,1.39487179 L14.654359,1.39487179 L14.654359,6.31794872 Z" id="Shape"></path>
            <path d="M3.98769231,14.1128205 C5.1205841,14.1128205 6.03897436,13.1944303 6.03897436,12.0615385 C6.03897436,10.9286467 5.1205841,10.0102564 3.98769231,10.0102564 C2.85480051,10.0102564 1.93641026,10.9286467 1.93641026,12.0615385 C1.93641026,13.1944303 2.85480051,14.1128205 3.98769231,14.1128205 Z M3.98769231,11.2410256 C4.44084903,11.2410256 4.80820513,11.6083817 4.80820513,12.0615385 C4.80820513,12.5146952 4.44084903,12.8820513 3.98769231,12.8820513 C3.53453559,12.8820513 3.16717949,12.5146952 3.16717949,12.0615385 C3.16717949,11.6083817 3.53453559,11.2410256 3.98769231,11.2410256 Z" id="Shape"></path>
            <path d="M14.654359,8.36923077 L1.52615385,8.36923077 C0.846418769,8.36923077 0.295384615,8.92026492 0.295384615,9.6 L0.295384615,14.5230769 C0.295384615,15.202812 0.846418769,15.7538462 1.52615385,15.7538462 L14.654359,15.7538462 C15.3340941,15.7538462 15.8851282,15.202812 15.8851282,14.5230769 L15.8851282,9.6 C15.8851282,8.92026492 15.3340941,8.36923077 14.654359,8.36923077 Z M14.654359,14.5230769 L1.52615385,14.5230769 L1.52615385,9.6 L14.654359,9.6 L14.654359,14.5230769 Z" id="Shape"></path>
        </g>
    </g>
</svg>