<?xml version="1.0" encoding="UTF-8"?>
<svg width="21px" height="20px" viewBox="0 0 21 20" version="1.1" xmlns="http://www.w3.org/2000/svg" xmlns:xlink="http://www.w3.org/1999/xlink">
    <!-- Generator: Sketch 52.6 (67491) - http://www.bohemiancoding.com/sketch -->
    <title>dashboard</title>
    <desc>Created with Sketch.</desc>
    <g id="Page-1" stroke="none" stroke-width="1" fill="none" fill-rule="evenodd">
        <g id="dashboard" fill="#000000" fill-rule="nonzero">
            <path d="M4.5,7 C5.88071187,7 7,5.88071187 7,4.5 C7,3.11928812 5.88071187,2 4.5,2 C3.11928812,2 2,3.11928812 2,4.5 C2,5.88071187 3.11928812,7 4.5,7 Z M4.5,3.5 C5.05228475,3.5 5.5,3.94771525 5.5,4.5 C5.5,5.05228474 5.05228475,5.5 4.5,5.5 C3.94771525,5.5 3.5,5.05228474 3.5,4.5 C3.5,3.94771525 3.94771525,3.5 4.5,3.5 Z" id="Shape"></path>
            <path d="M19.3421053,0 L1.65789474,0 C0.742264757,0 0,0.671572875 0,1.49999999 L0,7.5 C0,8.32842712 0.742264757,9 1.65789474,9 L19.3421053,9 C20.2577353,9 21,8.32842712 21,7.5 L21,1.49999999 C21,0.671572875 20.2577353,0 19.3421053,0 Z M19.3421053,7.5 L1.65789474,7.5 L1.65789474,1.49999999 L19.3421053,1.49999999 L19.3421053,7.5 Z" id="Shape"></path>
            <path d="M4.5,18 C5.88071187,18 7,16.8807119 7,15.5000001 C7,14.1192882 5.88071187,13 4.5,13 C3.11928812,13 2,14.1192882 2,15.5000001 C2,16.8807119 3.11928812,18 4.5,18 Z M4.5,14.5 C5.05228475,14.5 5.5,14.9477152 5.5,15.5000001 C5.5,16.0522848 5.05228475,16.5 4.5,16.5 C3.94771525,16.5 3.5,16.0522848 3.5,15.5000001 C3.5,14.9477152 3.94771525,14.5 4.5,14.5 Z" id="Shape"></path>
            <path d="M19.3421053,11 L1.65789474,11 C0.742264757,11 0,11.6715729 0,12.5 L0,18.4999999 C0,19.3284271 0.742264757,20 1.65789474,20 L19.3421053,20 C20.2577353,20 21,19.3284271 21,18.4999999 L21,12.5 C21,11.6715729 20.2577353,11 19.3421053,11 Z M19.3421053,18.4999999 L1.65789474,18.4999999 L1.65789474,12.5 L19.3421053,12.5 L19.3421053,18.4999999 Z" id="Shape"></path>
        </g>
    </g>
</svg>