<?xml version="1.0" encoding="UTF-8"?>
<svg width="50px" height="44px" viewBox="0 0 50 44" version="1.1" xmlns="http://www.w3.org/2000/svg" xmlns:xlink="http://www.w3.org/1999/xlink">
    <!-- Generator: Sketch 52.6 (67491) - http://www.bohemiancoding.com/sketch -->
    <title>Money_box Copy</title>
    <desc>Created with Sketch.</desc>
    <g id="Page-1" stroke="none" stroke-width="1" fill="none" fill-rule="evenodd">
        <g id="Money_box-Copy" fill="#0079FC">
            <circle id="Oval" cx="37.22" cy="17.9" r="1.5"></circle>
            <path d="M45.56,15.47 C43.91,11.47 40.56,8.59 35.91,6.94 L37.15,2.8 C37.3163155,2.2367214 37.1385916,1.62819709 36.6952584,1.24297073 C36.2519253,0.857744374 35.6245519,0.766693835 35.09,1.01 L25.43,5.42 C14.02,5.7 6.07,11.93 5.75,20.84 C4.23,20.41 3.57,19.89 3.48,19.56 C3.39,19.23 3.68,18.49 4.78,17.39 C5.33071772,16.7989805 5.31446775,15.8779806 4.7432436,15.3067564 C4.17201944,14.7355322 3.25101951,14.7192823 2.66,15.27 C0.85,17.08 0.15,18.79 0.59,20.36 C1.03,21.93 2.65,23.17 5.36,23.84 C5.48287921,23.8549678 5.60712079,23.8549678 5.73,23.84 C5.79990799,23.8450756 5.87009201,23.8450756 5.94,23.84 C6.65,27.92 9.09,30.69 11.72,32.84 L11.72,38.09 C11.7058613,40.9041647 13.9092381,43.2309306 16.72,43.37 L19.72,43.37 C21.9440587,43.3042461 23.8732881,41.8149457 24.5,39.68 L26.22,39.68 C26.79,39.68 27.37,39.77 27.94,39.68 C28.5728445,41.8047616 30.5035817,43.2790693 32.72,43.33 L35.72,43.33 C38.5307619,43.1909306 40.7341387,40.8641647 40.72,38.05 L40.72,32.84 C42.4652204,31.6652226 43.9355378,30.1266771 45.03,28.33 C47.6696731,28.1660297 49.7250878,25.974756 49.72,23.33 L49.72,20.33 C49.6867145,17.9188023 47.937193,15.8748901 45.56,15.47 Z M46.72,23.4 C46.72,24.5045695 45.8245695,25.4 44.72,25.4 L43.07,25.4 C42.15,28.26 40.25,29.5 37.72,31.4 L37.72,38.12 C37.7379676,39.2809095 36.8733557,40.2665671 35.72,40.4 L32.72,40.4 C31.5666443,40.2665671 30.7020324,39.2809095 30.72,38.12 L30.72,36.12 C27.7589614,36.8037663 24.6810386,36.8037663 21.72,36.12 L21.72,38.12 C21.7379676,39.2809095 20.8733557,40.2665671 19.72,40.4 L16.72,40.4 C15.5666443,40.2665671 14.7020324,39.2809095 14.72,38.12 L14.72,31.4 C11.05,28.65 8.72,25.9 8.72,21.4 C8.72,13.84 15.25,9.27 23.72,8.52 C24.1636844,8.91619313 24.8005038,9.01053674 25.34,8.76 L26.13,8.4 L26.32,8.4 L26.24,8.4 L33.33,5.16 L31.33,12.02 C31.1401496,12.7957435 31.59141,13.584212 32.3564388,13.8134541 C33.1214677,14.0426962 33.9319651,13.6323154 34.2,12.88 L35.1,9.88 C39.31,11.42 42.41,14.23 43.41,18.47 L44.76,18.47 C45.8645695,18.47 46.76,19.3654305 46.76,20.47 L46.72,23.4 Z" id="Shape"></path>
        </g>
    </g>
</svg>