<?xml version="1.0" encoding="UTF-8"?>
<svg width="16px" height="14px" viewBox="0 0 16 14" version="1.1" xmlns="http://www.w3.org/2000/svg" xmlns:xlink="http://www.w3.org/1999/xlink">
    <!-- Generator: Sketch 52.6 (67491) - http://www.bohemiancoding.com/sketch -->
    <title>Money_box Copy 2</title>
    <desc>Created with Sketch.</desc>
    <g id="Page-1" stroke="none" stroke-width="1" fill="none" fill-rule="evenodd">
        <g id="Money_box-Copy-2" fill="#000000">
            <circle id="Oval" cx="11.9104" cy="5.728" r="1"></circle>
            <path d="M14.5792,4.9504 C14.0512,3.6704 12.9792,2.7488 11.4912,2.2208 L11.888,0.896 C11.9412209,0.715750848 11.8843493,0.52102307 11.7424827,0.397750635 C11.6006161,0.2744782 11.3998566,0.245342027 11.2288,0.3232 L8.1376,1.7344 C4.4864,1.824 1.9424,3.8176 1.84,6.6688 C1.3536,6.5312 1.1424,6.3648 1.1136,6.2592 C1.0848,6.1536 1.1776,5.9168 1.5296,5.5648 C1.70582967,5.37567376 1.70062968,5.08095378 1.51783795,4.89816205 C1.33504622,4.71537032 1.04032624,4.71017033 0.8512,4.8864 C0.272,5.4656 0.048,6.0128 0.1888,6.5152 C0.3296,7.0176 0.848,7.4144 1.7152,7.6288 C1.75452135,7.63358968 1.79427865,7.63358968 1.8336,7.6288 C1.85597056,7.6304242 1.87842944,7.6304242 1.9008,7.6288 C2.128,8.9344 2.9088,9.8208 3.7504,10.5088 L3.7504,12.1888 C3.74587562,13.0893327 4.45095619,13.8338978 5.3504,13.8784 L6.3104,13.8784 C7.02209879,13.8573588 7.63945219,13.3807826 7.84,12.6976 L8.3904,12.6976 C8.5728,12.6976 8.7584,12.7264 8.9408,12.6976 C9.14331023,13.3775237 9.76114614,13.8493022 10.4704,13.8656 L11.4304,13.8656 C12.3298438,13.8210978 13.0349244,13.0765327 13.0304,12.176 L13.0304,10.5088 C13.5888705,10.1328712 14.0593721,9.64053666 14.4096,9.0656 C15.2542954,9.01312951 15.9120281,8.31192193 15.9104,7.4656 L15.9104,6.5056 C15.8997486,5.73401673 15.3399017,5.07996482 14.5792,4.9504 Z M14.9504,7.488 C14.9504,7.84146224 14.6638622,8.128 14.3104,8.128 L13.7824,8.128 C13.488,9.0432 12.88,9.44 12.0704,10.048 L12.0704,12.1984 C12.0761496,12.569891 11.7994738,12.8853015 11.4304,12.928 L10.4704,12.928 C10.1013262,12.8853015 9.82465037,12.569891 9.8304,12.1984 L9.8304,11.5584 C8.88286764,11.7772052 7.89793236,11.7772052 6.9504,11.5584 L6.9504,12.1984 C6.95614963,12.569891 6.67947382,12.8853015 6.3104,12.928 L5.3504,12.928 C4.98132618,12.8853015 4.70465037,12.569891 4.7104,12.1984 L4.7104,10.048 C3.536,9.168 2.7904,8.288 2.7904,6.848 C2.7904,4.4288 4.88,2.9664 7.5904,2.7264 C7.73237901,2.8531818 7.9361612,2.88337176 8.1088,2.8032 L8.3616,2.688 L8.4224,2.688 L8.3968,2.688 L10.6656,1.6512 L10.0256,3.8464 C9.96484788,4.09463792 10.1092512,4.34694784 10.3540604,4.42030532 C10.5988697,4.49366279 10.8582288,4.36234092 10.944,4.1216 L11.232,3.1616 C12.5792,3.6544 13.5712,4.5536 13.8912,5.9104 L14.3232,5.9104 C14.6766622,5.9104 14.9632,6.19693776 14.9632,6.5504 L14.9504,7.488 Z" id="Shape"></path>
        </g>
    </g>
</svg>