<?xml version="1.0" encoding="UTF-8"?>
<svg width="43px" height="38px" viewBox="0 0 43 38" version="1.1" xmlns="http://www.w3.org/2000/svg" xmlns:xlink="http://www.w3.org/1999/xlink">
    <!-- Generator: Sketch 52.6 (67491) - http://www.bohemiancoding.com/sketch -->
    <title>funds</title>
    <desc>Created with Sketch.</desc>
    <g id="Page-1" stroke="none" stroke-width="1" fill="none" fill-rule="evenodd">
        <g id="funds" transform="translate(-0.500000, 0.000000)" fill="#000000">
            <circle id="Oval" cx="32" cy="15.5" r="2.5"></circle>
            <path d="M39.8684705,13.0510588 C38.4280835,9.47414967 35.5036613,6.89877509 31.4443888,5.42330007 L32.5268615,1.72119912 C32.6720484,1.21750003 32.5169023,0.673340993 32.1298894,0.328861072 C31.7428766,-0.0156188489 31.1952035,-0.0970387265 30.7285601,0.120532285 L22.2957487,4.0640746 C12.3352542,4.31445824 5.39520758,9.88549422 5.11585979,17.8530593 C3.7889578,17.4685416 3.21280299,17.0035434 3.13423642,16.7084484 C3.05566986,16.4133534 3.30882879,15.7516252 4.26908681,14.7679752 C4.74984236,14.2394694 4.73565676,13.4158861 4.23699987,12.9050819 C3.73834298,12.3942777 2.93434518,12.3797465 2.41840772,12.8722133 C0.838346791,14.4907647 0.227273505,16.0198934 0.611376713,17.4238302 C0.995479922,18.827767 2.4096781,19.9366089 4.77540468,20.5357412 C4.88267354,20.5491257 4.99113169,20.5491257 5.09840056,20.5357412 C5.15942757,20.5402799 5.22069553,20.5402799 5.28172254,20.5357412 C5.90152545,24.1841885 8.03155233,26.661198 10.327442,28.5837867 L10.327442,33.2784799 C10.3150994,35.7949828 12.2385633,37.8756404 14.6922511,38 L17.3111367,38 C19.252655,37.9412012 20.9367987,36.609428 21.4838942,34.7003013 L22.9853886,34.7003013 C23.4829768,34.7003013 23.9892947,34.7807818 24.486883,34.7003013 C25.039332,36.6003211 26.7247919,37.9186874 28.6596405,37.9642309 L31.2785261,37.9642309 C33.7322139,37.8398713 35.6556778,35.7592137 35.6433352,33.2427109 L35.6433352,28.5837867 C37.166846,27.5332686 38.450377,26.1574593 39.4058008,24.5508217 C41.7101347,24.404195 43.5044332,22.4446982 43.4999918,20.0796852 L43.4999918,17.3970034 C43.4709347,15.2408446 41.9436691,13.4131225 39.8684705,13.0510588 Z M40.8811063,20.1422812 C40.8811063,21.1300173 40.0994295,21.9307357 39.1351826,21.9307357 L37.6947956,21.9307357 C36.8916707,24.4882258 35.2330432,25.5970676 33.0244497,27.2960994 L33.0244497,33.3053068 C33.0401347,34.3434236 32.2853615,35.2248257 31.2785261,35.344145 L28.6596405,35.344145 C27.6528051,35.2248257 26.8980318,34.3434236 26.9137169,33.3053068 L26.9137169,31.5168522 C24.3288431,32.1282946 21.6419341,32.1282946 19.0570603,31.5168522 L19.0570603,33.3053068 C19.0727454,34.3434236 18.3179722,35.2248257 17.3111367,35.344145 L14.6922511,35.344145 C13.6854156,35.2248257 12.9306424,34.3434236 12.9463275,33.3053068 L12.9463275,27.2960994 C9.74255753,24.8369744 7.70855645,22.3778494 7.70855645,18.3538266 C7.70855645,11.5934683 13.4089972,7.50684964 20.802984,6.83617918 C21.1903036,7.19046588 21.7462225,7.27483053 22.2171822,7.05079373 L22.906822,6.72887191 L23.0726848,6.72887191 L23.0028478,6.72887191 L29.1921473,3.83157551 L27.4462236,9.96597467 C27.2804915,10.6596657 27.6744245,11.3647357 28.3422654,11.5697303 C29.0101066,11.7747248 29.7176397,11.4077511 29.9516241,10.7350101 L30.7372897,8.05232829 C34.412459,9.4294383 37.1186407,11.942217 37.9916026,15.7337406 L39.1701011,15.7337406 C40.134348,15.7337406 40.9160247,16.534459 40.9160247,17.5221952 L40.8811063,20.1422812 Z" id="Shape" fill-rule="nonzero"></path>
        </g>
    </g>
</svg>