<?xml version="1.0" encoding="UTF-8"?>
<svg width="37px" height="42px" viewBox="0 0 37 42" version="1.1" xmlns="http://www.w3.org/2000/svg" xmlns:xlink="http://www.w3.org/1999/xlink">
    <!-- Generator: Sketch 52.6 (67491) - http://www.bohemiancoding.com/sketch -->
    <title>notifications</title>
    <desc>Created with Sketch.</desc>
    <g id="Page-1" stroke="none" stroke-width="1" fill="none" fill-rule="evenodd">
        <g id="notifications" fill="#000000" fill-rule="nonzero">
            <path d="M35.728045,32.4042442 C35.3313038,32.0421856 32.1089908,28.7931861 32.1089908,18.5412112 C32.0333224,15.0364335 30.7193454,11.6672217 28.3931703,9.01335342 C27.1447239,7.54387363 25.5991279,6.34652318 23.8548376,5.49757392 C23.8626916,5.41199755 23.8626916,5.32589813 23.8548376,5.24032176 C23.8548376,2.34617197 21.4720349,0 18.532699,0 C15.593363,0 13.2105603,2.34617197 13.2105603,5.24032176 C13.2027063,5.32589813 13.2027063,5.41199755 13.2105603,5.49757392 C11.46627,6.34652318 9.92067405,7.54387363 8.67222758,9.01335342 C6.34605247,11.6672217 5.03207546,15.0364335 4.95640716,18.5412112 C4.95640716,28.7741304 1.74377075,32.013602 1.34702951,32.3756606 C0.258350419,33.0169117 -0.248128377,34.3048741 0.118099314,35.5007979 C0.504489355,36.7536167 1.69169855,37.5991632 3.02108402,37.5683431 L12.4848142,37.5683431 C11.9515185,38.1172287 11.9515185,38.9821962 12.4848142,39.5310818 C14.0458895,41.109618 16.1885904,42 18.4262562,42 C20.663922,42 22.8066228,41.109618 24.3676982,39.5310818 C24.8649713,38.9902472 24.8649713,38.1663448 24.3676982,37.6255102 L33.9572244,37.6255102 C35.2866098,37.6563304 36.473819,36.8107839 36.8602091,35.5579651 C37.2559619,34.37553 36.7905671,33.0791406 35.728045,32.4042442 Z M18.5617288,2.82024589 C19.5747452,2.90530783 20.4516855,3.54736717 20.8260569,4.47809314 C19.332519,4.17191317 17.7909387,4.17191317 16.2974007,4.47809314 C16.6717722,3.54736717 17.5487125,2.90530783 18.5617288,2.82024589 Z M18.5617288,7.10778187 C24.6967032,7.10778187 29.2060061,13.2056108 29.2060061,18.5412112 C29.1516035,21.7525953 29.5323467,24.956784 30.3381701,28.0690689 L6.78528752,28.0690689 C7.59111093,24.956784 7.97185415,21.7525953 7.91745156,18.5412112 C7.91745156,13.2056108 12.4267545,7.10778187 18.5617288,7.10778187 Z M18.4939925,39.1594953 C17.0404718,39.174848 15.6431513,38.6073142 14.6233462,37.5873988 L22.2678726,37.5873988 C21.2721994,38.5845908 19.9141907,39.1503005 18.4939925,39.1594953 Z M3.07914371,34.7385693 C4.28952654,33.7133215 5.21523557,32.4018422 5.76924287,30.9274262 L31.3638914,30.9274262 C31.9178987,32.4018422 32.8436077,33.7133215 34.0539905,34.7385693 L3.07914371,34.7385693 Z" id="Shape"></path>
        </g>
    </g>
</svg>