<?xml version="1.0" encoding="UTF-8"?>
<svg width="39px" height="46px" viewBox="0 0 39 46" version="1.1" xmlns="http://www.w3.org/2000/svg" xmlns:xlink="http://www.w3.org/1999/xlink">
    <!-- Generator: Sketch 52.6 (67491) - http://www.bohemiancoding.com/sketch -->
    <title>Notification Copy</title>
    <desc>Created with Sketch.</desc>
    <g id="Page-1" stroke="none" stroke-width="1" fill="none" fill-rule="evenodd">
        <g id="Notification-Copy" fill="#0079FC">
            <path d="M37.46,34.95 C37.05,34.57 33.72,31.16 33.72,20.4 C33.6418029,16.721547 32.2839139,13.1853777 29.88,10.4 C28.5898315,8.85770179 26.992583,7.60101799 25.19,6.71 C25.1981165,6.62018299 25.1981165,6.52981701 25.19,6.44 C25.19,3.40243388 22.7275661,0.94 19.69,0.94 C16.6524339,0.94 14.19,3.40243388 14.19,6.44 C14.1818835,6.52981701 14.1818835,6.62018299 14.19,6.71 C12.387417,7.60101799 10.7901685,8.85770179 9.5,10.4 C7.09608608,13.1853777 5.73819707,16.721547 5.66,20.4 C5.66,31.14 2.34,34.54 1.93,34.92 C0.804938178,35.5930276 0.281533289,36.9448135 0.66,38.2 C1.05930287,39.5149008 2.28618759,40.4023474 3.66,40.37 L13.44,40.37 C12.888882,40.946085 12.888882,41.853915 13.44,42.43 C15.0532452,44.0867588 17.2675533,45.0212627 19.58,45.0212627 C21.8924467,45.0212627 24.1067548,44.0867588 25.72,42.43 C26.2338915,41.862365 26.2338915,40.997635 25.72,40.43 L35.63,40.43 C37.0038124,40.4623474 38.2306971,39.5749008 38.63,38.26 C39.0389786,37.0189707 38.5580306,35.6583402 37.46,34.95 L37.46,34.95 Z M19.72,3.9 C20.7668705,3.98927709 21.6731174,4.66315296 22.06,5.64 C20.5165493,5.31864763 18.9234507,5.31864763 17.38,5.64 C17.7668826,4.66315296 18.6731295,3.98927709 19.72,3.9 L19.72,3.9 Z M19.72,8.4 C26.06,8.4 30.72,14.8 30.72,20.4 C30.6637793,23.7705207 31.0572467,27.1334893 31.89,30.4 L7.55,30.4 C8.38275335,27.1334893 8.77622068,23.7705207 8.72,20.4 C8.72,14.8 13.38,8.4 19.72,8.4 Z M19.65,42.04 C18.1479039,42.0561135 16.7038861,41.4604562 15.65,40.39 L23.55,40.39 C22.5210522,41.4366067 21.11766,42.0303495 19.65,42.04 L19.65,42.04 Z M3.72,37.4 C4.9708328,36.3239472 5.92747824,34.947479 6.5,33.4 L32.95,33.4 C33.5225218,34.947479 34.4791672,36.3239472 35.73,37.4 L3.72,37.4 Z" id="Shape"></path>
        </g>
    </g>
</svg>