<?xml version="1.0" encoding="UTF-8"?>
<svg width="16px" height="19px" viewBox="0 0 16 19" version="1.1" xmlns="http://www.w3.org/2000/svg" xmlns:xlink="http://www.w3.org/1999/xlink">
    <!-- Generator: Sketch 52.6 (67491) - http://www.bohemiancoding.com/sketch -->
    <title>Notification Copy 2</title>
    <desc>Created with Sketch.</desc>
    <g id="Page-1" stroke="none" stroke-width="1" fill="none" fill-rule="evenodd">
        <g id="Notification-Copy-2" fill="#000000">
            <path d="M15.3682051,14.3384615 C15.2,14.1825641 13.8338462,12.7835897 13.8338462,8.36923077 C13.8017653,6.86012185 13.2446826,5.40938573 12.2584615,4.26666667 C11.7291616,3.63392894 11.0738802,3.11836635 10.334359,2.75282051 C10.3376888,2.71597251 10.3376888,2.67889929 10.334359,2.64205128 C10.334359,1.39587031 9.32412969,0.385641026 8.07794872,0.385641026 C6.83176774,0.385641026 5.82153846,1.39587031 5.82153846,2.64205128 C5.81820863,2.67889929 5.81820863,2.71597251 5.82153846,2.75282051 C5.08201723,3.11836635 4.42673579,3.63392894 3.8974359,4.26666667 C2.9112148,5.40938573 2.35413213,6.86012185 2.32205128,8.36923077 C2.32205128,12.7753846 0.96,14.1702564 0.791794872,14.3261538 C0.330231047,14.6022677 0.115500837,15.1568466 0.270769231,15.6717949 C0.434585792,16.2112414 0.937923113,16.575322 1.50153846,16.5620513 L5.51384615,16.5620513 C5.28774647,16.7983938 5.28774647,17.1708369 5.51384615,17.4071795 C6.17569033,18.0868754 7.08412444,18.4702616 8.03282051,18.4702616 C8.98151659,18.4702616 9.88995069,18.0868754 10.5517949,17.4071795 C10.7626222,17.1743036 10.7626222,16.8195426 10.5517949,16.5866667 L14.6174359,16.5866667 C15.1810512,16.5999374 15.6843886,16.2358567 15.8482051,15.6964103 C16.0159912,15.18727 15.8186792,14.6290626 15.3682051,14.3384615 L15.3682051,14.3384615 Z M8.09025641,1.6 C8.51974175,1.6366265 8.89153534,1.9130884 9.05025641,2.31384615 C8.41704585,2.18200928 7.76346697,2.18200928 7.13025641,2.31384615 C7.28897748,1.9130884 7.66077107,1.6366265 8.09025641,1.6 L8.09025641,1.6 Z M8.09025641,3.44615385 C10.6912821,3.44615385 12.6030769,6.07179487 12.6030769,8.36923077 C12.580012,9.75200848 12.7414345,11.1316879 13.0830769,12.4717949 L3.0974359,12.4717949 C3.4390783,11.1316879 3.60050079,9.75200848 3.5774359,8.36923077 C3.5774359,6.07179487 5.48923077,3.44615385 8.09025641,3.44615385 Z M8.06153846,17.2471795 C7.4452939,17.2537901 6.85287637,17.0094179 6.42051282,16.5702564 L9.66153846,16.5702564 C9.23940602,16.9996335 8.6636554,17.2432203 8.06153846,17.2471795 L8.06153846,17.2471795 Z M1.52615385,15.3435897 C2.03931602,14.9021322 2.43178594,14.3374273 2.66666667,13.7025641 L13.5179487,13.7025641 C13.7528294,14.3374273 14.1452994,14.9021322 14.6584615,15.3435897 L1.52615385,15.3435897 Z" id="Shape"></path>
        </g>
    </g>
</svg>