<?xml version="1.0" encoding="UTF-8"?>
<svg width="16px" height="18px" viewBox="0 0 16 18" version="1.1" xmlns="http://www.w3.org/2000/svg" xmlns:xlink="http://www.w3.org/1999/xlink">
    <!-- Generator: Sketch 52.6 (67491) - http://www.bohemiancoding.com/sketch -->
    <title>Edit-2 Copy 2</title>
    <desc>Created with Sketch.</desc>
    <g id="Page-1" stroke="none" stroke-width="1" fill="none" fill-rule="evenodd">
        <g id="Edit-2-Copy-2" fill="#000000">
            <path d="M13.488,16.56 L1.488,16.56 L1.488,1.36 L8.288,1.36 L8.288,0.16 L1.488,0.16 C0.8252583,0.16 0.288,0.6972583 0.288,1.36 L0.288,16.56 C0.288,17.2227417 0.8252583,17.76 1.488,17.76 L13.488,17.76 C14.1507417,17.76 14.688,17.2227417 14.688,16.56 L14.688,8.96 L13.488,8.96 L13.488,16.56 Z" id="Shape"></path>
            <path d="M15.536,1.656 L14.688,0.808 C14.2194919,0.340074595 13.4605081,0.340074595 12.992,0.808 C12.992,0.808 6.324,7.468 6.224,7.872 L5.924,9.072 C5.82130518,9.48121165 5.9410511,9.91429088 6.23938011,10.2126199 C6.53770912,10.5109489 6.97078835,10.6306948 7.38,10.528 L8.58,10.228 C8.98,10.124 15.536,3.356 15.536,3.356 C16.0039254,2.88749193 16.0039254,2.12850807 15.536,1.66 L15.536,1.656 Z M9.056,8.136 L8.236,7.316 L8.208,7.292 L13.84,1.66 L14.688,2.508 L9.056,8.136 Z" id="Shape"></path>
        </g>
    </g>
</svg>