<?xml version="1.0" encoding="UTF-8"?>
<svg width="36px" height="41px" viewBox="0 0 36 41" version="1.1" xmlns="http://www.w3.org/2000/svg" xmlns:xlink="http://www.w3.org/1999/xlink">
    <!-- Generator: Sketch 52.6 (67491) - http://www.bohemiancoding.com/sketch -->
    <title>plans</title>
    <desc>Created with Sketch.</desc>
    <g id="Page-1" stroke="none" stroke-width="1" fill="none" fill-rule="evenodd">
        <g id="plans" transform="translate(-0.500000, 0.000000)" fill="#000000">
            <path d="M30.75,38.2045455 L3.25,38.2045455 L3.25,2.79545455 L18.8333333,2.79545455 L18.8333333,0 L3.25,0 C1.73121694,0 0.5,1.25156763 0.5,2.79545455 L0.5,38.2045455 C0.5,39.7484324 1.73121694,41 3.25,41 L30.75,41 C32.2687831,41 33.5,39.7484324 33.5,38.2045455 L33.5,20.5 L30.75,20.5 L30.75,38.2045455 Z" id="Shape"></path>
            <path d="M35.6927529,3.84698552 L33.7421698,1.83334384 C32.6645,0.722218721 30.9186734,0.722218721 29.8410036,1.83334384 C29.8410036,1.83334384 14.503164,17.6480297 14.2731424,18.607359 L13.5830776,21.4568519 C13.3468573,22.4285567 13.6222988,23.4569368 14.3085199,24.1653422 C14.9947411,24.8737475 15.9909168,25.1580934 16.932192,24.9142367 L19.6924511,24.2018634 C20.6125374,23.9549074 35.6927529,7.88376719 35.6927529,7.88376719 C36.7690824,6.77125849 36.7690824,4.96899253 35.6927529,3.85648383 L35.6927529,3.84698552 Z M20.7873538,19.2342474 L18.9011768,17.2870939 L18.8367707,17.230104 L31.7915867,3.85648383 L33.7421698,5.87012551 L20.7873538,19.2342474 Z" id="Shape" fill-rule="nonzero"></path>
        </g>
    </g>
</svg>