<?xml version="1.0" encoding="UTF-8"?>
<svg width="40px" height="45px" viewBox="0 0 40 45" version="1.1" xmlns="http://www.w3.org/2000/svg" xmlns:xlink="http://www.w3.org/1999/xlink">
    <!-- Generator: Sketch 52.6 (67491) - http://www.bohemiancoding.com/sketch -->
    <title>Edit-2 Copy</title>
    <desc>Created with Sketch.</desc>
    <g id="Page-1" stroke="none" stroke-width="1" fill="none" fill-rule="evenodd">
        <g id="Edit-2-Copy" fill="#0079FC">
            <path d="M33.72,41.4 L3.72,41.4 L3.72,3.4 L20.72,3.4 L20.72,0.4 L3.72,0.4 C2.06314575,0.4 0.72,1.74314575 0.72,3.4 L0.72,41.4 C0.72,43.0568542 2.06314575,44.4 3.72,44.4 L33.72,44.4 C35.3768542,44.4 36.72,43.0568542 36.72,41.4 L36.72,22.4 L33.72,22.4 L33.72,41.4 Z" id="Shape"></path>
            <path d="M38.84,4.14 L36.72,2.02 C35.5487298,0.850186488 33.6512702,0.850186488 32.48,2.02 C32.48,2.02 15.81,18.67 15.56,19.68 L14.81,22.68 C14.553263,23.7030291 14.8526277,24.7857272 15.5984503,25.5315497 C16.3442728,26.2773723 17.4269709,26.576737 18.45,26.32 L21.45,25.57 C22.45,25.31 38.84,8.39 38.84,8.39 C40.0098135,7.21872981 40.0098135,5.32127019 38.84,4.15 L38.84,4.14 Z M22.64,20.34 L20.59,18.29 L20.52,18.23 L34.6,4.15 L36.72,6.27 L22.64,20.34 Z" id="Shape"></path>
        </g>
    </g>
</svg>