<?xml version="1.0" encoding="UTF-8"?>
<svg width="16px" height="17px" viewBox="0 0 16 17" version="1.1" xmlns="http://www.w3.org/2000/svg" xmlns:xlink="http://www.w3.org/1999/xlink">
    <!-- Generator: Sketch 52.6 (67491) - http://www.bohemiancoding.com/sketch -->
    <title>Chart-13 Copy 2</title>
    <desc>Created with Sketch.</desc>
    <g id="Page-1" stroke="none" stroke-width="1" fill="none" fill-rule="evenodd">
        <g id="Chart-13-Copy-2" fill="#000000">
            <path d="M15.8933333,15.3904762 L15.8933333,5.48571429 C15.8933333,5.1047619 15.8285714,4.91428571 15.512381,4.91428571 C14.4038095,4.91428571 13.9619048,5.73333333 13.607619,6.39238095 C13.2,7.15428571 12.9295238,7.58095238 12.0838095,7.58095238 C11.4514286,7.58095238 11.2571429,7.2 10.8990476,6.17142857 C10.5409524,5.14285714 10.0647619,3.77142857 8.27428571,3.77142857 L8.15238095,3.77142857 L8.08380952,3.77142857 C8.03826555,3.76584801 7.99221064,3.76584801 7.94666667,3.77142857 C5.95809524,3.95809524 5.48190476,5.84761905 5.06285714,7.53142857 C4.90040918,8.30546867 4.65651162,9.06014645 4.3352381,9.78285714 C4.24132879,9.96851717 4.12765459,10.1434988 3.99619048,10.3047619 C3.88617768,10.3652689 3.79915514,10.4603242 3.74857143,10.5752381 C3.10584452,11.1385905 2.27109299,11.4332087 1.41714286,11.3980952 L1.41714286,0.914285714 C1.41714286,0.598694429 1.16130557,0.342857143 0.845714286,0.342857143 C0.530123,0.342857143 0.274285714,0.598694429 0.274285714,0.914285714 L0.274285714,15.5809524 C0.274285714,15.8965437 0.530123,16.152381 0.845714286,16.152381 L15.512381,16.152381 C15.8285714,16.152381 16.007619,15.4933333 15.8933333,15.3904762 Z M3.70285714,15.0095238 L1.41714286,15.0095238 L1.41714286,12.56 L1.48952381,12.56 C2.26048683,12.5599671 3.0199514,12.3730421 3.70285714,12.0152381 L3.70285714,15.0095238 Z M7.51238095,15.0095238 L4.84571429,15.0095238 L4.84571429,11.0895238 C5.04471078,10.8561103 5.21601028,10.6004394 5.35619048,10.327619 C5.71738667,9.53044687 5.99074243,8.69632861 6.17142857,7.84 C6.52952381,6.40761905 6.80380952,5.45904762 7.51238095,5.09714286 L7.51238095,15.0095238 Z M11.3219048,15.0095238 L8.6552381,15.0095238 L8.6552381,4.96 C9.28380952,5.11238095 9.51238095,5.6647619 9.82095238,6.5447619 C10.08,7.28380952 10.4152381,8.24761905 11.3219048,8.59047619 L11.3219048,15.0095238 Z M14.7504762,15.0095238 L12.4647619,15.0095238 L12.4647619,8.70095238 C13.752381,8.54857143 14.247619,7.62666667 14.6171429,6.93333333 L14.7504762,6.69333333 L14.7504762,15.0095238 Z" id="Shape"></path>
        </g>
    </g>
</svg>