<?xml version="1.0" encoding="UTF-8"?>
<svg width="39px" height="40px" viewBox="0 0 39 40" version="1.1" xmlns="http://www.w3.org/2000/svg" xmlns:xlink="http://www.w3.org/1999/xlink">
    <!-- Generator: Sketch 52.6 (67491) - http://www.bohemiancoding.com/sketch -->
    <title>Shape</title>
    <desc>Created with Sketch.</desc>
    <g id="Page-1" stroke="none" stroke-width="1" fill="none" fill-rule="evenodd">
        <path d="M38.9136714,38.0722891 L38.9136714,13.0120482 C38.9136714,12.0481927 38.7523221,11.566265 37.9645577,11.566265 C35.202636,11.566265 34.1016639,13.6385542 33.2189878,15.306024 C32.203436,17.2337349 31.5295651,18.313253 29.4225321,18.313253 C27.8470031,18.313253 27.362955,17.3493975 26.4707877,14.7469879 C25.5786207,12.1445783 24.3922282,8.67469877 19.9313927,8.67469877 L19.6276763,8.67469877 L19.4568358,8.67469877 C19.3433664,8.66057928 19.2286241,8.66057928 19.1151548,8.67469877 C14.16078,9.14698793 12.9743876,13.9277108 11.9303622,18.1879517 C11.5256355,20.1463665 10.9179832,22.0557922 10.1175546,23.8843373 C9.88358669,24.3540795 9.60037605,24.7968041 9.2728432,25.2048192 C8.99875466,25.3579092 8.78194461,25.5984105 8.65591913,25.8891566 C7.05461383,27.314506 4.97489375,28.0599255 2.84734183,27.9710842 L2.84734183,1.44578313 C2.84734183,0.647299155 2.20994264,0 1.42367091,0 C0.637399178,0 0,0.647299155 0,1.44578313 L0,38.5542168 C0,39.3527008 0.637399178,40 1.42367091,40 L37.9645577,40 C38.7523221,40 39.1984056,38.3325299 38.9136714,38.0722891 Z M9,37 L3,37 L3,30.4554707 L3.18999999,30.4554707 C5.21377793,30.4553828 7.20737243,29.9559649 9,29 L9,37 Z M18,37 L11,37 L11,27.1133743 C11.5223658,26.5246825 11.972027,25.8798553 12.34,25.1917754 C13.28814,23.1812289 14.0056989,21.0775006 14.48,18.9177556 C15.42,15.3051499 16.14,12.9127594 18,12 L18,37 Z M27,37 L20,37 L20,12 C21.65,12.3790751 22.25,13.7532221 23.0599999,15.9423806 C23.7399999,17.7808946 24.6199999,20.1785444 27,21.0314632 L27,37 Z M36,37 L30,37 L30,21.069629 C33.3800001,20.6848374 34.6799999,18.3568484 35.6500001,16.6060467 L36,16 L36,37 Z" id="Shape" fill="#000000" fill-rule="nonzero"></path>
    </g>
</svg>