<?xml version="1.0" encoding="UTF-8"?>
<svg width="42px" height="43px" viewBox="0 0 42 43" version="1.1" xmlns="http://www.w3.org/2000/svg" xmlns:xlink="http://www.w3.org/1999/xlink">
    <!-- Generator: Sketch 52.6 (67491) - http://www.bohemiancoding.com/sketch -->
    <title>Chart-13 Copy</title>
    <desc>Created with Sketch.</desc>
    <g id="Page-1" stroke="none" stroke-width="1" fill="none" fill-rule="evenodd">
        <g id="Chart-13-Copy" fill="#0079FC">
            <path d="M41.72,40.4 L41.72,14.4 C41.72,13.4 41.55,12.9 40.72,12.9 C37.81,12.9 36.65,15.05 35.72,16.78 C34.65,18.78 33.94,19.9 31.72,19.9 C30.06,19.9 29.55,18.9 28.61,16.2 C27.67,13.5 26.42,9.9 21.72,9.9 L21.4,9.9 L21.22,9.9 C21.1004471,9.88535103 20.9795529,9.88535103 20.86,9.9 C15.64,10.39 14.39,15.35 13.29,19.77 C12.8635741,21.8018553 12.223343,23.7828844 11.38,25.68 C11.1334881,26.1673576 10.8350933,26.6266843 10.49,27.05 C10.2012164,27.2088307 9.97278225,27.4583511 9.84,27.76 C8.15284185,29.2388 5.9616191,30.0121727 3.72,29.92 L3.72,2.4 C3.72,1.57157288 3.04842712,0.9 2.22,0.9 C1.39157288,0.9 0.72,1.57157288 0.72,2.4 L0.72,40.9 C0.72,41.7284271 1.39157288,42.4 2.22,42.4 L40.72,42.4 C41.55,42.4 42.02,40.67 41.72,40.4 Z M9.72,39.4 L3.72,39.4 L3.72,32.97 L3.91,32.97 C5.93377794,32.9699138 7.92737242,32.4792356 9.72,31.54 L9.72,39.4 Z M19.72,39.4 L12.72,39.4 L12.72,29.11 C13.2423658,28.4972896 13.692027,27.8261535 14.06,27.11 C15.00814,25.017423 15.7256989,22.8278626 16.2,20.58 C17.14,16.82 17.86,14.33 19.72,13.38 L19.72,39.4 Z M29.72,39.4 L22.72,39.4 L22.72,13.02 C24.37,13.42 24.97,14.87 25.78,17.18 C26.46,19.12 27.34,21.65 29.72,22.55 L29.72,39.4 Z M38.72,39.4 L32.72,39.4 L32.72,22.84 C36.1,22.44 37.4,20.02 38.37,18.2 L38.72,17.57 L38.72,39.4 Z" id="Shape"></path>
        </g>
    </g>
</svg>