<?xml version="1.0" encoding="UTF-8"?>
<svg width="33px" height="38px" viewBox="0 0 33 38" version="1.1" xmlns="http://www.w3.org/2000/svg" xmlns:xlink="http://www.w3.org/1999/xlink">
    <!-- Generator: Sketch 52.6 (67491) - http://www.bohemiancoding.com/sketch -->
    <title>rules</title>
    <desc>Created with Sketch.</desc>
    <g id="Page-1" stroke="none" stroke-width="1" fill="none" fill-rule="evenodd">
        <g id="rules" fill="#000000">
            <path d="M16.5,2.59357146 C29.5263158,2.59357146 30.3947368,6.05166677 30.3947368,6.05166677 L30.3947368,17.5498336 C30.3951058,23.7950903 27.0124342,29.5551854 21.5455264,32.6184838 L16.5,35.4454768 L11.4544737,32.6184838 C5.98756581,29.5551854 2.60489423,23.7950903 2.60526316,17.5498336 L2.60526316,6.05166677 C2.60526316,6.05166677 2.60526316,2.59357146 16.5,2.59357146 Z M16.5,0 C10.3255263,0 5.84447368,0.674328582 3.17842105,2.00569528 C0.234473684,3.47538576 0,5.46379057 0,6.05166677 L0,17.5498336 C0.0137803874,24.7183814 3.90248266,31.3246116 10.1778947,34.8403101 L15.223421,37.6673031 C16.0161472,38.110899 16.9838528,38.110899 17.7765789,37.6673031 L22.8221053,34.8403101 C29.0975173,31.3246116 32.9862195,24.7183814 32.9999999,17.5498336 L32.9999999,6.05166677 C33.0000488,5.8389042 32.9737989,5.62694406 32.921842,5.42056438 C32.4094735,3.39757863 29.6044735,0 16.5,0 Z" id="Shape" fill-rule="nonzero"></path>
            <path d="M15.2795838,24 C14.9374871,23.9996992 14.6095116,23.86368 14.3677633,23.6218466 L8.34630666,17.6057685 C7.87257484,17.0978228 7.88655318,16.3062789 8.37792482,15.8153462 C8.86929645,15.3244134 9.66154805,15.3104476 10.1699478,15.7837563 L15.2795838,20.8888283 L23.8300522,12.3459973 C24.338452,11.8726887 25.1307036,11.8866545 25.6220753,12.3775872 C26.1134468,12.86852 26.1274252,13.6600639 25.6536933,14.1680096 L16.1914044,23.6218466 C15.9496561,23.86368 15.6216806,23.9996992 15.2795838,24 Z" id="Shape"></path>
        </g>
    </g>
</svg>