<?xml version="1.0" encoding="UTF-8"?>
<svg width="16px" height="19px" viewBox="0 0 16 19" version="1.1" xmlns="http://www.w3.org/2000/svg" xmlns:xlink="http://www.w3.org/1999/xlink">
    <!-- Generator: Sketch 52.6 (67491) - http://www.bohemiancoding.com/sketch -->
    <title>Security_check Copy 2</title>
    <desc>Created with Sketch.</desc>
    <g id="Page-1" stroke="none" stroke-width="1" fill="none" fill-rule="evenodd">
        <g id="Security_check-Copy-2" fill="#000000">
            <path d="M8.09025641,1.39487179 C14.2441026,1.39487179 14.654359,3.03589744 14.654359,3.03589744 L14.654359,8.49230769 C14.6545333,11.4559699 13.0565035,14.1894006 10.4738462,15.6430769 L8.09025641,16.9846154 L5.70666667,15.6430769 C3.12400934,14.1894006 1.52597956,11.4559699 1.52615385,8.49230769 L1.52615385,3.03589744 C1.52615385,3.03589744 1.52615385,1.39487179 8.09025641,1.39487179 L8.09025641,1.39487179 Z M8.09025641,0.164102564 C5.17333333,0.164102564 3.05641026,0.484102564 1.79692308,1.11589744 C0.406153846,1.81333333 0.295384615,2.75692308 0.295384615,3.03589744 L0.295384615,8.49230769 C0.301894697,11.8941141 2.13898171,15.0290749 5.10358974,16.6974359 L7.48717949,18.0389744 C7.86167638,18.2494811 8.31883644,18.2494811 8.69333333,18.0389744 L11.0769231,16.6974359 C14.0415311,15.0290749 15.8786181,11.8941141 15.8851282,8.49230769 L15.8851282,3.03589744 C15.8851513,2.93493179 15.8727504,2.83434693 15.8482051,2.73641026 C15.6061538,1.77641026 14.2810256,0.164102564 8.09025641,0.164102564 Z" id="Shape"></path>
            <path d="M7.68,11.4461538 C7.51684484,11.4460102 7.3604245,11.381081 7.24512821,11.265641 L4.37333333,8.39384615 C4.14739786,8.15137661 4.15406451,7.77353048 4.38841288,7.53918211 C4.62276125,7.30483374 5.00060738,7.29816709 5.24307692,7.52410256 L7.68,9.96102564 L11.7579487,5.88307692 C12.0004183,5.65714145 12.3782644,5.6638081 12.6126128,5.89815647 C12.8469611,6.13250484 12.8536278,6.51035097 12.6276923,6.75282051 L8.11487179,11.265641 C7.9995755,11.381081 7.84315516,11.4460102 7.68,11.4461538 L7.68,11.4461538 Z" id="Shape"></path>
        </g>
    </g>
</svg>