<?xml version="1.0" encoding="UTF-8"?>
<svg width="39px" height="45px" viewBox="0 0 39 45" version="1.1" xmlns="http://www.w3.org/2000/svg" xmlns:xlink="http://www.w3.org/1999/xlink">
    <!-- Generator: Sketch 52.6 (67491) - http://www.bohemiancoding.com/sketch -->
    <title>Security_check Copy</title>
    <desc>Created with Sketch.</desc>
    <g id="Page-1" stroke="none" stroke-width="1" fill="none" fill-rule="evenodd">
        <g id="Security_check-Copy" fill="#0079FC">
            <path d="M19.72,3.4 C34.72,3.4 35.72,7.4 35.72,7.4 L35.72,20.7 C35.7204248,27.9239266 31.8252272,34.586664 25.53,38.13 L19.72,41.4 L13.91,38.13 C7.61477278,34.586664 3.71957518,27.9239266 3.72,20.7 L3.72,7.4 C3.72,7.4 3.72,3.4 19.72,3.4 L19.72,3.4 Z M19.72,0.4 C12.61,0.4 7.45,1.18 4.38,2.72 C0.99,4.42 0.72,6.72 0.72,7.4 L0.72,20.7 C0.735868323,28.9919031 5.21376792,36.63337 12.44,40.7 L18.25,43.97 C19.1628362,44.4831103 20.2771638,44.4831103 21.19,43.97 L27,40.7 C34.2262321,36.63337 38.7041317,28.9919031 38.72,20.7 L38.72,7.4 C38.7200562,7.15389623 38.6898291,6.90872065 38.63,6.67 C38.04,4.33 34.81,0.4 19.72,0.4 Z" id="Shape"></path>
            <path d="M18.72,27.9 C18.3223093,27.8996499 17.9410347,27.741385 17.66,27.46 L10.66,20.46 C10.1092823,19.8689805 10.1255322,18.9479806 10.6967564,18.3767564 C11.2679806,17.8055322 12.1889805,17.7892823 12.78,18.34 L18.72,24.28 L28.66,14.34 C29.2510195,13.7892823 30.1720194,13.8055322 30.7432436,14.3767564 C31.3144678,14.9479806 31.3307177,15.8689805 30.78,16.46 L19.78,27.46 C19.4989653,27.741385 19.1176907,27.8996499 18.72,27.9 L18.72,27.9 Z" id="Shape"></path>
        </g>
    </g>
</svg>