<?xml version="1.0" encoding="UTF-8"?>
<svg width="45px" height="30px" viewBox="0 0 45 30" version="1.1" xmlns="http://www.w3.org/2000/svg" xmlns:xlink="http://www.w3.org/1999/xlink">
    <!-- Generator: Sketch 52.6 (67491) - http://www.bohemiancoding.com/sketch -->
    <title>Glasses Copy</title>
    <desc>Created with Sketch.</desc>
    <g id="Page-1" stroke="none" stroke-width="1" fill="none" fill-rule="evenodd">
        <g id="Glasses-Copy" fill="#0079FC">
            <path d="M44.22,14.69 C44.3113724,14.2478862 44.1973668,13.7881865 43.91,13.44 L33.91,1.44 C33.5770719,0.996891934 33.0269342,0.773478458 32.4793282,0.858997463 C31.9317221,0.944516468 31.475899,1.32502967 31.293928,1.84854895 C31.1119569,2.37206822 31.2334964,2.95326798 31.61,3.36 L39.98,13.36 L5.67,13.36 L14.82,3.36 C15.2530213,2.97905042 15.4292793,2.38356927 15.2733717,1.82830104 C15.1174641,1.27303282 14.6570055,0.856328282 14.0889785,0.756452003 C13.5209515,0.656575723 12.9459665,0.891218083 12.61,1.36 L1.61,13.36 C1.29684149,13.7108572 1.17045848,14.1903692 1.27,14.65 C0.912406512,15.1560296 0.720274575,15.7603719 0.72,16.38 L0.72,19.38 C0.719333075,24.7087425 4.89731457,29.1019425 10.2193753,29.3687125 C15.5414361,29.6354824 20.1377927,25.6820988 20.67,20.38 L24.77,20.38 C25.3022073,25.6820988 29.8985639,29.6354824 35.2206247,29.3687125 C40.5426854,29.1019425 44.7206669,24.7087425 44.72,19.38 L44.72,16.38 C44.7262954,15.7793121 44.5521107,15.1905678 44.22,14.69 L44.22,14.69 Z M24.72,16.4 L24.72,17.4 L20.72,17.4 L20.72,16.4 L24.72,16.4 Z M17.72,19.4 C17.72,23.2659932 14.5859932,26.4 10.72,26.4 C6.85400675,26.4 3.72,23.2659932 3.72,19.4 L3.72,16.4 L17.72,16.4 L17.72,19.4 Z M41.72,19.4 C41.72,23.2659932 38.5859932,26.4 34.72,26.4 C30.8540068,26.4 27.72,23.2659932 27.72,19.4 L27.72,16.4 L41.72,16.4 L41.72,19.4 Z" id="Shape"></path>
            <path d="M10.72,25.9 C10.8428732,25.915067 10.9671268,25.915067 11.09,25.9 C14.0821921,25.1567061 16.1923573,22.4830075 16.22,19.4 C16.22,18.5715729 15.5484271,17.9 14.72,17.9 C13.8915729,17.9 13.22,18.5715729 13.22,19.4 C13.169925,21.0938765 11.9958014,22.5461897 10.35,22.95 C9.52157317,23.052173 8.93282799,23.806573 9.03500063,24.6349999 C9.13717328,25.4634268 9.89157308,26.0521723 10.72,25.95 L10.72,25.9 Z" id="Shape"></path>
            <path d="M34.72,25.9 C34.8428732,25.915067 34.9671268,25.915067 35.09,25.9 C38.0821921,25.1567061 40.1923573,22.4830075 40.22,19.4 C40.22,18.5715729 39.5484271,17.9 38.72,17.9 C37.8915729,17.9 37.22,18.5715729 37.22,19.4 C37.169925,21.0938765 35.9958014,22.5461897 34.35,22.95 C33.5215732,23.052173 32.932828,23.806573 33.0350006,24.6349999 C33.1371733,25.4634268 33.8915731,26.0521723 34.72,25.95 L34.72,25.9 Z" id="Shape"></path>
        </g>
    </g>
</svg>