<?xml version="1.0" encoding="UTF-8"?>
<svg width="16px" height="20px" viewBox="0 0 16 20" version="1.1" xmlns="http://www.w3.org/2000/svg" xmlns:xlink="http://www.w3.org/1999/xlink">
    <!-- Generator: Sketch 52.6 (67491) - http://www.bohemiancoding.com/sketch -->
    <title>Flag Copy 2</title>
    <desc>Created with Sketch.</desc>
    <g id="Page-1" stroke="none" stroke-width="1" fill="none" fill-rule="evenodd">
        <g id="Flag-Copy-2" fill="#000000">
            <path d="M13.7691429,6.624 L15.7394286,3.14514286 C15.9802355,2.72055457 15.9772157,2.19997233 15.7314993,1.77820624 C15.4857829,1.35644015 15.0344078,1.09706492 14.5462857,1.09714286 L1.70057143,1.09714286 C1.70057143,0.718433314 1.39356669,0.411428571 1.01485714,0.411428571 C0.6361476,0.411428571 0.329142857,0.718433314 0.329142857,1.09714286 L0.329142857,18.4685714 C0.329142857,18.847281 0.6361476,19.1542857 1.01485714,19.1542857 C1.39356669,19.1542857 1.70057143,18.847281 1.70057143,18.4685714 L1.70057143,12.5257143 L14.5005714,12.5257143 C14.975395,12.5250654 15.4160995,12.2788523 15.6655766,11.8748485 C15.9150536,11.4708446 15.9378028,10.9665394 15.7257143,10.5417143 L13.7691429,6.624 Z M1.70057143,11.1542857 L1.70057143,2.46857143 L14.5005714,2.46857143 L12.1828571,6.58285714 L14.4685714,11.1542857 L1.70057143,11.1542857 Z" id="Shape"></path>
        </g>
    </g>
</svg>