<?xml version="1.0" encoding="UTF-8"?>
<svg width="44px" height="28px" viewBox="0 0 44 28" version="1.1" xmlns="http://www.w3.org/2000/svg" xmlns:xlink="http://www.w3.org/1999/xlink">
    <!-- Generator: Sketch 52.6 (67491) - http://www.bohemiancoding.com/sketch -->
    <title>subscribers</title>
    <desc>Created with Sketch.</desc>
    <g id="Page-1" stroke="none" stroke-width="1" fill="none" fill-rule="evenodd">
        <g id="subscribers" transform="translate(-0.500000, 0.000000)" fill="#000000">
            <path d="M43.9998373,13.6407143 C44.0912091,13.2085965 43.977204,12.7592904 43.6898382,12.4189762 L33.6898758,0.690290368 C33.3569488,0.257200758 32.8068132,0.038838553 32.2592094,0.122424014 C31.7116053,0.206009478 31.255784,0.577919465 31.0738134,1.08960222 C30.8918431,1.60128498 31.0133823,2.1693441 31.3898843,2.56688011 L39.759853,12.340785 L5.44998147,12.340785 L14.5999472,2.56688011 C15.0329669,2.19454362 15.2092243,1.61252599 15.0533172,1.06981211 C14.8974102,0.527098233 14.4369534,0.119815182 13.8689285,0.0221970569 C13.3009036,-0.0754210685 12.7259208,0.153916143 12.3899555,0.61209913 L1.38999667,12.340785 C1.07683933,12.6837094 0.950456788,13.1523799 1.04999794,13.6016187 C0.692405791,14.0962072 0.500274575,14.6868856 0.5,15.2925043 L0.5,18.2246757 C0.499333077,23.4329379 4.67729893,27.7268097 9.99933977,27.9875483 C15.3213806,28.2482866 19.91772,24.3842872 20.4499253,19.2020662 L24.54991,19.2020662 C25.0821153,24.3842872 29.6784547,28.2482866 35.0004956,27.9875483 C40.3225363,27.7268097 44.5005023,23.4329379 44.4998352,18.2246757 L44.4998352,15.2925043 C44.5061307,14.7053976 44.3319467,14.1299645 43.9998373,13.6407143 Z M24.4999102,15.3120521 L24.4999102,16.2894426 L20.4999251,16.2894426 L20.4999251,15.3120521 L24.4999102,15.3120521 Z M17.4999364,18.2442235 C17.4999364,22.0228086 14.3659413,25.0859569 10.4999626,25.0859569 C6.6339838,25.0859569 3.49998878,22.0228086 3.49998878,18.2442235 L3.49998878,15.3120521 L17.4999364,15.3120521 L17.4999364,18.2442235 Z M41.4998466,18.2442235 C41.4998466,22.0228086 38.3658516,25.0859569 34.4998728,25.0859569 C30.6338939,25.0859569 27.4998989,22.0228086 27.4998989,18.2442235 L27.4998989,15.3120521 L41.4998466,15.3120521 L41.4998466,18.2442235 Z" id="Shape" fill-rule="nonzero"></path>
            <path d="M10.1501925,24.9389483 C10.2697103,24.9539003 10.3905709,24.9539003 10.5100887,24.9389483 C13.4205708,24.2013268 15.4731122,21.5480325 15.5,18.4885528 C15.5,17.6664478 14.8467662,17 14.0409616,17 C13.2351569,17 12.5819232,17.6664478 12.5819232,18.4885528 C12.5332156,20.1695025 11.3911547,21.6107324 9.79029638,22.0114611 C8.98449201,22.1128544 8.41182413,22.8614972 8.51120667,23.683602 C8.6105892,24.5057068 9.34438806,25.0899593 10.1501925,24.9885667 L10.1501925,24.9389483 Z" id="Shape"></path>
            <path d="M34.1501926,24.9389483 C34.2697102,24.9539003 34.3905709,24.9539003 34.5100886,24.9389483 C37.4205709,24.2013268 39.4731122,21.5480325 39.5,18.4885528 C39.5,17.6664478 38.8467664,17 38.0409617,17 C37.2351569,17 36.5819233,17.6664478 36.5819233,18.4885528 C36.5332156,20.1695025 35.3911548,21.6107324 33.7902963,22.0114611 C32.9844921,22.1128544 32.4118242,22.8614972 32.5112066,23.683602 C32.6105893,24.5057068 33.3443881,25.0899593 34.1501926,24.9885667 L34.1501926,24.9389483 Z" id="Shape"></path>
        </g>
    </g>
</svg>