<?xml version="1.0" encoding="UTF-8"?>
<svg width="36px" height="42px" viewBox="0 0 36 42" version="1.1" xmlns="http://www.w3.org/2000/svg" xmlns:xlink="http://www.w3.org/1999/xlink">
    <!-- Generator: Sketch 52.6 (67491) - http://www.bohemiancoding.com/sketch -->
    <title>Shape Copy</title>
    <desc>Created with Sketch.</desc>
    <g id="Page-1" stroke="none" stroke-width="1" fill="none" fill-rule="evenodd">
        <path d="M31.0376872,13.9214634 L35.5877699,6.12585367 C36.1438777,5.17441345 36.1369039,4.00786483 35.5694583,3.06274874 C35.0020128,2.11763266 33.9596289,1.53641072 32.8323833,1.53658537 L3.16711093,1.53658537 C3.16711093,0.687952702 2.45812901,0 1.58355546,0 C0.708981931,0 0,0.687952702 0,1.53658537 L0,40.4634146 C0,41.3120474 0.708981931,42 1.58355546,42 C2.45812901,42 3.16711093,41.3120474 3.16711093,40.4634146 L3.16711093,27.1463415 L32.7268129,27.1463415 C33.8233476,27.1448874 34.8410893,26.5931599 35.4172196,25.6878465 C35.9933498,24.7825329 36.0458857,23.6524587 35.5560987,22.7004879 L31.0376872,13.9214634 Z M3.16711093,24.0731707 L3.16711093,4.60975611 L32.7268129,4.60975611 L27.3743954,13.8292683 L32.6529136,24.0731707 L3.16711093,24.0731707 Z" id="Shape-Copy" fill="#000000" fill-rule="nonzero"></path>
    </g>
</svg>