<?xml version="1.0" encoding="UTF-8"?>
<svg width="16px" height="11px" viewBox="0 0 16 11" version="1.1" xmlns="http://www.w3.org/2000/svg" xmlns:xlink="http://www.w3.org/1999/xlink">
    <!-- Generator: Sketch 52.6 (67491) - http://www.bohemiancoding.com/sketch -->
    <title>Glasses Copy 2</title>
    <desc>Created with Sketch.</desc>
    <g id="Page-1" stroke="none" stroke-width="1" fill="none" fill-rule="evenodd">
        <g id="Glasses-Copy-2" fill="#000000">
            <path d="M15.7226667,5.22311111 C15.7551546,5.06591509 15.7146193,4.90246631 15.6124444,4.77866667 L12.0568889,0.512 C11.9385144,0.354450465 11.7429099,0.275014563 11.5482056,0.30542132 C11.3535012,0.335828078 11.1914308,0.471121662 11.1267299,0.657261848 C11.0620291,0.843402035 11.1052432,1.05005084 11.2391111,1.19466667 L14.2151111,4.75022222 L2.016,4.75022222 L5.26933333,1.19466667 C5.42329645,1.05921793 5.48596598,0.847491294 5.43053216,0.650062593 C5.37509833,0.452633891 5.21137975,0.304472278 5.00941458,0.268960712 C4.80744941,0.233449146 4.60301032,0.316877541 4.48355556,0.483555556 L0.572444444,4.75022222 C0.461099195,4.87497144 0.416163013,5.0454646 0.451555556,5.20888889 C0.324411204,5.38881053 0.256097627,5.60368778 0.256,5.824 L0.256,6.89066667 C0.255762871,8.78533066 1.7412674,10.3473573 3.63355567,10.4422089 C5.52584393,10.5370604 7.16010406,9.13141292 7.34933333,7.24622222 L8.80711111,7.24622222 C8.99634038,9.13141292 10.6306005,10.5370604 12.5228888,10.4422089 C14.415177,10.3473573 15.9006816,8.78533066 15.9004444,6.89066667 L15.9004444,5.824 C15.9026828,5.61042207 15.8407505,5.40109077 15.7226667,5.22311111 L15.7226667,5.22311111 Z M8.78933333,5.83111111 L8.78933333,6.18666667 L7.36711111,6.18666667 L7.36711111,5.83111111 L8.78933333,5.83111111 Z M6.30044444,6.89777778 C6.30044444,8.27235316 5.18613093,9.38666667 3.81155556,9.38666667 C2.43698018,9.38666667 1.32266667,8.27235316 1.32266667,6.89777778 L1.32266667,5.83111111 L6.30044444,5.83111111 L6.30044444,6.89777778 Z M14.8337778,6.89777778 C14.8337778,8.27235316 13.7194643,9.38666667 12.3448889,9.38666667 C10.9703135,9.38666667 9.856,8.27235316 9.856,6.89777778 L9.856,5.83111111 L14.8337778,5.83111111 L14.8337778,6.89777778 Z" id="Shape"></path>
            <path d="M3.81155556,9.20888889 C3.85524379,9.21424603 3.89942287,9.21424603 3.94311111,9.20888889 C5.00700165,8.94460662 5.75728261,7.99395823 5.76711111,6.89777778 C5.76711111,6.60322591 5.52832964,6.36444444 5.23377778,6.36444444 C4.93922591,6.36444444 4.70044444,6.60322591 4.70044444,6.89777778 C4.68264,7.50004496 4.26517382,8.01642299 3.68,8.16 C3.38544824,8.19632818 3.17611662,8.4645593 3.21244467,8.75911108 C3.24877272,9.05366286 3.51700376,9.26299459 3.81155556,9.22666667 L3.81155556,9.20888889 Z" id="Shape"></path>
            <path d="M12.3448889,9.20888889 C12.3885771,9.21424603 12.4327562,9.21424603 12.4764444,9.20888889 C13.540335,8.94460662 14.2906159,7.99395823 14.3004444,6.89777778 C14.3004444,6.60322591 14.061663,6.36444444 13.7671111,6.36444444 C13.4725592,6.36444444 13.2337778,6.60322591 13.2337778,6.89777778 C13.2159733,7.50004496 12.7985072,8.01642299 12.2133333,8.16 C11.9187816,8.19632818 11.70945,8.4645593 11.745778,8.75911108 C11.7821061,9.05366286 12.0503371,9.26299459 12.3448889,9.22666667 L12.3448889,9.20888889 Z" id="Shape"></path>
        </g>
    </g>
</svg>