<?xml version="1.0" encoding="UTF-8"?>
<svg width="16px" height="18px" viewBox="0 0 16 18" version="1.1" xmlns="http://www.w3.org/2000/svg" xmlns:xlink="http://www.w3.org/1999/xlink">
    <!-- Generator: Sketch 52.6 (67491) - http://www.bohemiancoding.com/sketch -->
    <title>Document Copy 2</title>
    <desc>Created with Sketch.</desc>
    <g id="Page-1" stroke="none" stroke-width="1" fill="none" fill-rule="evenodd">
        <g id="Document-Copy-2" fill="#000000">
            <path d="M14.654359,0.164102564 L5.21846154,0.164102564 C4.79387822,0.165549903 4.40002297,0.385736697 4.17641026,0.746666667 L0.894358974,4.02871795 C0.52215059,4.25135664 0.294599719,4.65346708 0.295384615,5.08717949 L0.295384615,16.1641026 C0.295384615,16.8438376 0.846418769,17.3948718 1.52615385,17.3948718 L14.654359,17.3948718 C15.3340941,17.3948718 15.8851282,16.8438376 15.8851282,16.1641026 L15.8851282,1.39487179 C15.8851282,0.715136718 15.3340941,0.164102564 14.654359,0.164102564 Z M3.98769231,2.67487179 L3.98769231,3.85641026 L2.80615385,3.85641026 L3.98769231,2.67487179 Z M14.654359,16.1641026 L1.52615385,16.1641026 L1.52615385,5.12820513 L1.55076923,5.12820513 L1.57538462,5.10358974 L5.21846154,5.10358974 L5.21846154,1.46051282 L5.24307692,1.43589744 L5.24307692,1.41128205 L14.6379487,1.41128205 L14.654359,16.1641026 Z" id="Shape"></path>
            <path d="M12.1928205,9.6 L3.98769231,9.6 C3.64782477,9.6 3.37230769,9.87551708 3.37230769,10.2153846 C3.37230769,10.5552522 3.64782477,10.8307692 3.98769231,10.8307692 L12.1928205,10.8307692 C12.5326881,10.8307692 12.8082051,10.5552522 12.8082051,10.2153846 C12.8082051,9.87551708 12.5326881,9.6 12.1928205,9.6 Z" id="Shape"></path>
            <path d="M10.9620513,12.4717949 L3.98769231,12.4717949 C3.64782477,12.4717949 3.37230769,12.7473119 3.37230769,13.0871795 C3.37230769,13.427047 3.64782477,13.7025641 3.98769231,13.7025641 L10.9620513,13.7025641 C11.3019188,13.7025641 11.5774359,13.427047 11.5774359,13.0871795 C11.5774359,12.7473119 11.3019188,12.4717949 10.9620513,12.4717949 Z" id="Shape"></path>
            <path d="M9.32102564,7.95897436 L11.7825641,7.95897436 C12.4622992,7.95897436 13.0133333,7.4079402 13.0133333,6.72820513 L13.0133333,4.26666667 C13.0133333,3.58693159 12.4622992,3.03589744 11.7825641,3.03589744 L9.32102564,3.03589744 C8.64129056,3.03589744 8.09025641,3.58693159 8.09025641,4.26666667 L8.09025641,6.72820513 C8.09025641,7.4079402 8.64129056,7.95897436 9.32102564,7.95897436 Z M9.32102564,4.26666667 L11.7825641,4.26666667 L11.7825641,6.72820513 L9.32102564,6.72820513 L9.32102564,4.26666667 Z" id="Shape"></path>
        </g>
    </g>
</svg>