<?xml version="1.0" encoding="UTF-8"?>
<svg width="39px" height="43px" viewBox="0 0 39 43" version="1.1" xmlns="http://www.w3.org/2000/svg" xmlns:xlink="http://www.w3.org/1999/xlink">
    <!-- Generator: Sketch 52.6 (67491) - http://www.bohemiancoding.com/sketch -->
    <title>Document Copy</title>
    <desc>Created with Sketch.</desc>
    <g id="Page-1" stroke="none" stroke-width="1" fill="none" fill-rule="evenodd">
        <g id="Document-Copy" fill="#0079FC">
            <path d="M35.72,0.4 L12.72,0.4 C11.6850782,0.403527888 10.725056,0.940233198 10.18,1.82 L2.18,9.82 C1.27274206,10.3626818 0.718086816,11.342826 0.72,12.4 L0.72,39.4 C0.72,41.0568542 2.06314575,42.4 3.72,42.4 L35.72,42.4 C37.3768542,42.4 38.72,41.0568542 38.72,39.4 L38.72,3.4 C38.72,1.74314575 37.3768542,0.4 35.72,0.4 Z M9.72,6.52 L9.72,9.4 L6.84,9.4 L9.72,6.52 Z M35.72,39.4 L3.72,39.4 L3.72,12.5 L3.78,12.5 L3.84,12.44 L12.72,12.44 L12.72,3.56 L12.78,3.5 L12.78,3.44 L35.68,3.44 L35.72,39.4 Z" id="Shape"></path>
            <path d="M29.72,23.4 L9.72,23.4 C8.89157288,23.4 8.22,24.0715729 8.22,24.9 C8.22,25.7284271 8.89157288,26.4 9.72,26.4 L29.72,26.4 C30.5484271,26.4 31.22,25.7284271 31.22,24.9 C31.22,24.0715729 30.5484271,23.4 29.72,23.4 Z" id="Shape"></path>
            <path d="M26.72,30.4 L9.72,30.4 C8.89157288,30.4 8.22,31.0715729 8.22,31.9 C8.22,32.7284271 8.89157288,33.4 9.72,33.4 L26.72,33.4 C27.5484271,33.4 28.22,32.7284271 28.22,31.9 C28.22,31.0715729 27.5484271,30.4 26.72,30.4 Z" id="Shape"></path>
            <path d="M22.72,19.4 L28.72,19.4 C30.3768542,19.4 31.72,18.0568542 31.72,16.4 L31.72,10.4 C31.72,8.74314575 30.3768542,7.4 28.72,7.4 L22.72,7.4 C21.0631458,7.4 19.72,8.74314575 19.72,10.4 L19.72,16.4 C19.72,18.0568542 21.0631458,19.4 22.72,19.4 Z M22.72,10.4 L28.72,10.4 L28.72,16.4 L22.72,16.4 L22.72,10.4 Z" id="Shape"></path>
        </g>
    </g>
</svg>