<?xml version="1.0" encoding="UTF-8"?>
<svg width="38px" height="42px" viewBox="0 0 38 42" version="1.1" xmlns="http://www.w3.org/2000/svg" xmlns:xlink="http://www.w3.org/1999/xlink">
    <!-- Generator: Sketch 52.6 (67491) - http://www.bohemiancoding.com/sketch -->
    <title>themes</title>
    <desc>Created with Sketch.</desc>
    <g id="Page-1" stroke="none" stroke-width="1" fill="none" fill-rule="evenodd">
        <g id="themes" fill="#000000">
            <path d="M35.0000005,0 L12.0000034,0 C10.9650817,0.00352788881 10.0050596,0.540233199 9.46000372,1.42 L1.46000474,9.42 C0.552746923,9.96268181 -0.00190825034,10.942826 4.93341142e-06,12 L4.93341142e-06,39.0000001 C4.93341142e-06,40.6568541 1.34315051,42 3.00000456,42 L35.0000005,42 C36.6568543,42 38,40.6568541 38,39.0000001 L38,2.99999999 C38,1.34314575 36.6568543,0 35.0000005,0 Z M9.00000377,6.11999999 L9.00000377,9.00000001 L6.12000415,9.00000001 L9.00000377,6.11999999 Z M35.0000005,39.0000001 L3.00000456,39.0000001 L3.00000456,12.1 L3.06000454,12.1 L3.12000454,12.04 L12.0000034,12.04 L12.0000034,3.16 L12.0600034,3.10000001 L12.0600034,3.04 L34.9600004,3.04 L35.0000005,39.0000001 Z" id="Shape" fill-rule="nonzero"></path>
            <path d="M28.5,23 L8.50000002,23 C7.67157288,23 7,23.6715729 7,24.5 C7,25.3284271 7.67157288,26 8.50000002,26 L28.5,26 C29.3284271,26 30,25.3284271 30,24.5 C30,23.6715729 29.3284271,23 28.5,23 Z" id="Shape"></path>
            <path d="M25.5,30 L8.50000001,30 C7.67157288,30 7,30.6715729 7,31.5 C7,32.3284271 7.67157288,33 8.50000001,33 L25.5,33 C26.3284271,33 27,32.3284271 27,31.5 C27,30.6715729 26.3284271,30 25.5,30 Z" id="Shape"></path>
            <path d="M22,19 L28.0000001,19 C29.6568544,19 31,17.6568542 31,16 L31,10 C31,8.34314574 29.6568544,7 28.0000001,7 L22,7 C20.3431458,7 19,8.34314574 19,10 L19,16 C19,17.6568542 20.3431458,19 22,19 Z M22,10 L28.0000001,10 L28.0000001,16 L22,16 L22,10 Z" id="Shape" fill-rule="nonzero"></path>
        </g>
    </g>
</svg>