<?xml version="1.0" encoding="UTF-8"?>
<svg width="18px" height="17px" viewBox="0 0 18 17" version="1.1" xmlns="http://www.w3.org/2000/svg" xmlns:xlink="http://www.w3.org/1999/xlink">
    <!-- Generator: Sketch 52.6 (67491) - http://www.bohemiancoding.com/sketch -->
    <title>user</title>
    <desc>Created with Sketch.</desc>
    <g id="Page-1" stroke="none" stroke-width="1" fill="none" fill-rule="evenodd">
        <g id="Group" fill="#000000">
            <g id="user">
                <path d="M9.20000002,10.5238095 C11.6244,10.5238095 13.6,8.16472222 13.6,5.26190475 C13.6,2.3590873 11.6244,0 9.20000002,0 C6.77560001,0 4.8,2.3590873 4.8,5.26190475 C4.8,8.16472222 6.78000002,10.5238095 9.20000002,10.5238095 Z M9.20000002,1.3154762 C10.9028,1.3154762 12.28,3.06944444 12.28,5.26190475 C12.28,7.45436508 10.9028,9.20833333 9.20000002,9.20833333 C7.49720002,9.20833333 6.12000002,7.45436508 6.12000002,5.26190475 C6.12000002,3.06944444 7.49720002,1.3154762 9.20000002,1.3154762 Z" id="Shape" fill-rule="nonzero"></path>
                <path d="M13.0170732,10.1225318 C12.6533736,10.0845233 12.329053,10.3618314 12.292683,10.7419169 C12.256313,11.1220023 12.5216662,11.4609345 12.8853659,11.4989431 C14.9277168,11.7497443 16.510011,13.4842701 16.6521951,15.6281768 L1.34780488,15.6281768 C1.50342936,13.4904927 3.07887259,11.763477 5.11463416,11.4989431 C5.47833388,11.4609345 5.74368705,11.1220023 5.70731709,10.7419169 C5.67094712,10.3618314 5.34662655,10.0845233 4.98292685,10.1225318 C4.93463416,10.1225318 0,10.7098006 0,16.3117943 C0,16.6918798 0.294836873,17 0.658536587,17 L17.3414635,17 C17.7051632,17 18,16.6918798 18,16.3117943 C18,10.7098006 13.0653659,10.1225318 13.0170732,10.1225318 Z" id="Shape"></path>
            </g>
        </g>
    </g>
</svg>