<?xml version="1.0" encoding="UTF-8"?>
<svg width="16px" height="15px" viewBox="0 0 16 15" version="1.1" xmlns="http://www.w3.org/2000/svg" xmlns:xlink="http://www.w3.org/1999/xlink">
    <!-- Generator: Sketch 52.6 (67491) - http://www.bohemiancoding.com/sketch -->
    <title>User Copy 2</title>
    <desc>Created with Sketch.</desc>
    <g id="Page-1" stroke="none" stroke-width="1" fill="none" fill-rule="evenodd">
        <g id="User-Copy-2" fill="#000000">
            <path d="M7.89333333,9.2952381 C9.99238095,9.2952381 11.7028571,7.24571429 11.7028571,4.72380952 C11.7028571,2.20190476 9.99238095,0.152380952 7.89333333,0.152380952 C5.79428571,0.152380952 4.08380952,2.20190476 4.08380952,4.72380952 C4.08380952,7.24571429 5.79809524,9.2952381 7.89333333,9.2952381 Z M7.89333333,1.2952381 C9.36761905,1.2952381 10.56,2.81904762 10.56,4.72380952 C10.56,6.62857143 9.36761905,8.15238095 7.89333333,8.15238095 C6.41904762,8.15238095 5.22666667,6.62857143 5.22666667,4.72380952 C5.22666667,2.81904762 6.41904762,1.2952381 7.89333333,1.2952381 Z" id="Shape"></path>
            <path d="M11.3790476,8.91428571 C11.0634564,8.88272662 10.7820354,9.11298017 10.7504762,9.42857143 C10.7189171,9.7441627 10.9491706,10.0255837 11.2647619,10.0571429 C13.0369606,10.2653873 14.4099566,11.7055929 14.5333333,13.4857143 L1.25333333,13.4857143 C1.38837256,11.7107596 2.75542383,10.2767898 4.52190476,10.0571429 C4.83749605,10.0255837 5.0677496,9.74416271 5.03619048,9.42857143 C5.00463135,9.11298014 4.72321033,8.88272659 4.40761905,8.91428571 C4.36571429,8.91428571 0.0838095238,9.40190476 0.0838095238,14.0533333 C0.0838095238,14.3689246 0.33964681,14.6247619 0.655238095,14.6247619 L15.1314286,14.6247619 C15.4470199,14.6247619 15.7028571,14.3689246 15.7028571,14.0533333 C15.7028571,9.40190476 11.4209524,8.91428571 11.3790476,8.91428571 Z" id="Shape"></path>
        </g>
    </g>
</svg>